<svg xmlns="http://www.w3.org/2000/svg" xmlns:xlink="http://www.w3.org/1999/xlink" width="794" zoomAndPan="magnify" viewBox="0 0 595.5 842.249979" height="1123" preserveAspectRatio="xMidYMid meet" version="1.0"><defs><clipPath id="6d92ba3470"><path d="M 35 23.515625 L 350 23.515625 L 350 174 L 35 174 Z M 35 23.515625 " clip-rule="nonzero"/></clipPath><clipPath id="51e6e0856d"><path d="M 0.792969 186 L 182 186 L 182 325 L 0.792969 325 Z M 0.792969 186 " clip-rule="nonzero"/></clipPath><clipPath id="8baa325288"><path d="M 186 202 L 371.105469 202 L 371.105469 342.851562 L 186 342.851562 Z M 186 202 " clip-rule="nonzero"/></clipPath><clipPath id="0bcbf63675"><path d="M 63 104 L 98.9375 104 L 98.9375 130.476562 L 63 130.476562 Z M 63 104 " clip-rule="nonzero"/></clipPath><clipPath id="59e25c9a5f"><path d="M 32.222656 15 L 98.9375 15 L 98.9375 93 L 32.222656 93 Z M 32.222656 15 " clip-rule="nonzero"/></clipPath><clipPath id="b3f04dac5b"><path d="M 45 33 L 98.9375 33 L 98.9375 93 L 45 93 Z M 45 33 " clip-rule="nonzero"/></clipPath><clipPath id="6fcc399081"><rect x="0" width="372" y="0" height="344"/></clipPath></defs><g transform="matrix(1, 0, 0, 1, 98, 140)"><g clip-path="url(#6fcc399081)"><g clip-path="url(#6d92ba3470)"><path fill="#191e5e" d="M 257.476562 44.660156 L 297.597656 44.660156 C 297.878906 44.660156 298.105469 44.886719 298.105469 45.167969 L 298.105469 109.003906 C 298.105469 109.160156 298.171875 109.308594 298.292969 109.40625 L 349.171875 150.914062 C 349.378906 151.089844 349.414062 151.394531 349.25 151.613281 L 332.738281 172.914062 C 332.570312 173.140625 332.25 173.1875 332.023438 173.019531 C 332.019531 173.015625 332.015625 173.011719 332.011719 173.007812 L 193.363281 59.886719 C 193.175781 59.730469 192.902344 59.730469 192.714844 59.886719 L 53.125 173.164062 C 52.90625 173.339844 52.585938 173.300781 52.40625 173.082031 C 52.40625 173.078125 52.402344 173.074219 52.398438 173.070312 L 35.886719 151.410156 C 35.726562 151.1875 35.769531 150.882812 35.980469 150.714844 L 192.574219 23.632812 C 192.761719 23.476562 193.035156 23.476562 193.226562 23.632812 L 256.132812 74.960938 C 256.347656 75.140625 256.671875 75.109375 256.851562 74.890625 C 256.929688 74.796875 256.96875 74.679688 256.96875 74.558594 L 256.96875 45.167969 C 256.964844 44.886719 257.191406 44.660156 257.476562 44.660156 Z M 257.476562 44.660156 " fill-opacity="1" fill-rule="nonzero"/></g><path fill="#f2a800" d="M 305.171875 197.3125 C 299.34375 195.855469 290.082031 193.523438 282.910156 193.386719 C 256.378906 192.890625 232.996094 201.292969 212.765625 218.601562 C 207.519531 223.09375 203.316406 227.535156 200.152344 231.925781 C 190.367188 245.46875 181.753906 261.980469 179.265625 278.277344 C 177.824219 287.664062 177.679688 297.164062 178.832031 306.769531 C 178.917969 307.421875 178.457031 308.019531 177.804688 308.105469 C 177.753906 308.109375 177.707031 308.113281 177.65625 308.113281 L 80.96875 308.113281 C 80.15625 308.113281 79.5 307.449219 79.5 306.628906 L 79.5 163.175781 C 79.5 161.707031 80.160156 160.320312 81.292969 159.402344 L 191.644531 69.859375 C 192.582031 69.101562 193.917969 69.101562 194.84375 69.859375 L 304.378906 159.230469 C 305.785156 160.375 306.605469 162.089844 306.605469 163.902344 L 306.605469 196.179688 C 306.605469 196.820312 306.089844 197.34375 305.449219 197.34375 C 305.355469 197.34375 305.261719 197.332031 305.171875 197.3125 Z M 305.171875 197.3125 " fill-opacity="1" fill-rule="nonzero"/><g clip-path="url(#51e6e0856d)"><path fill="#191e5e" d="M 40.664062 212.136719 L 40.476562 192.394531 C 40.449219 189.371094 42.878906 186.898438 45.902344 186.871094 C 45.984375 186.871094 46.066406 186.871094 46.152344 186.875 L 46.230469 186.875 C 49.1875 186.976562 51.535156 189.394531 51.53125 192.347656 L 51.59375 212.324219 C 51.59375 212.859375 52.027344 213.296875 52.566406 213.296875 C 52.582031 213.296875 52.597656 213.296875 52.613281 213.296875 C 53.601562 213.246094 55.722656 213.238281 58.96875 213.28125 C 61.605469 213.3125 62.917969 214.574219 62.910156 217.070312 C 62.878906 229.558594 62.9375 239.410156 63.082031 246.613281 C 63.265625 255.886719 59.445312 265.519531 49.089844 266.386719 C 45.96875 266.652344 41.765625 266.65625 36.488281 266.398438 C 35.96875 266.375 35.527344 266.777344 35.5 267.296875 C 35.5 267.3125 35.5 267.328125 35.5 267.34375 C 35.601562 280.761719 35.617188 289 35.542969 292.046875 C 35.296875 302.222656 40.398438 309.84375 49.335938 313.738281 C 52.304688 315.027344 57.667969 315.667969 65.429688 315.65625 C 89.621094 315.617188 127.503906 315.550781 179.078125 315.453125 C 179.917969 315.449219 180.628906 316.066406 180.730469 316.890625 L 181.628906 323.585938 C 181.707031 324.121094 181.328125 324.613281 180.789062 324.691406 C 180.742188 324.695312 180.699219 324.699219 180.652344 324.699219 C 160.617188 324.832031 122.757812 324.882812 67.070312 324.851562 C 58.886719 324.84375 53.238281 324.382812 50.125 323.476562 C 36.164062 319.410156 27.121094 307.242188 27.273438 292.496094 C 27.316406 288.144531 27.445312 279.703125 27.660156 267.171875 C 27.671875 266.683594 27.289062 266.28125 26.8125 266.277344 C 26.804688 266.277344 26.800781 266.277344 26.796875 266.277344 C 24.558594 266.253906 22.023438 266.347656 19.191406 266.554688 C 10.449219 267.160156 4.683594 263.457031 1.890625 255.4375 C 1.074219 253.097656 0.714844 249.476562 0.808594 244.570312 C 0.992188 235.109375 1.050781 225.226562 0.980469 214.933594 C 0.96875 213.914062 1.792969 213.085938 2.816406 213.074219 C 2.824219 213.074219 2.828125 213.074219 2.832031 213.074219 L 10.640625 213.074219 C 11.042969 213.074219 11.367188 212.75 11.367188 212.351562 L 11.367188 191.960938 C 11.367188 189.175781 13.621094 186.917969 16.40625 186.917969 L 17.117188 186.917969 C 19.910156 186.917969 22.175781 189.191406 22.175781 191.992188 L 22.175781 212.089844 C 22.175781 212.6875 22.660156 213.171875 23.253906 213.171875 L 39.628906 213.171875 C 40.199219 213.171875 40.664062 212.714844 40.664062 212.148438 C 40.664062 212.144531 40.664062 212.140625 40.664062 212.136719 Z M 23.054688 243.242188 L 29.535156 243.242188 C 30.070312 243.246094 30.503906 243.683594 30.5 244.222656 C 30.5 244.3125 30.488281 244.40625 30.460938 244.492188 L 26.503906 257.246094 C 26.476562 257.355469 26.546875 257.464844 26.652344 257.488281 C 26.722656 257.503906 26.792969 257.484375 26.84375 257.433594 L 41.019531 240.039062 C 41.300781 239.707031 41.253906 239.207031 40.910156 238.925781 C 40.765625 238.808594 40.585938 238.742188 40.402344 238.742188 L 32.765625 238.742188 C 32.289062 238.734375 31.902344 238.351562 31.90625 237.878906 C 31.90625 237.796875 31.921875 237.710938 31.945312 237.625 L 35.101562 227.441406 C 35.183594 227.160156 35.027344 226.867188 34.75 226.785156 C 34.609375 226.742188 34.453125 226.761719 34.324219 226.835938 C 33.410156 227.371094 32.703125 227.976562 32.207031 228.644531 C 29.113281 232.746094 25.847656 237.195312 22.40625 241.984375 C 22.148438 242.339844 22.226562 242.832031 22.578125 243.089844 C 22.714844 243.191406 22.886719 243.246094 23.054688 243.242188 Z M 23.054688 243.242188 " fill-opacity="1" fill-rule="nonzero"/></g><g clip-path="url(#8baa325288)"><path fill="#57b834" d="M 356.808594 341.675781 C 356.214844 342.492188 355.265625 342.972656 354.257812 342.972656 L 202.996094 342.972656 C 201.480469 342.976562 200.078125 342.1875 199.300781 340.902344 C 192.191406 329.101562 187.902344 316.140625 186.4375 302.019531 C 185.152344 289.804688 188.046875 276.292969 191.800781 264.484375 C 194.90625 254.710938 199.320312 246.382812 205.050781 239.5 C 213.027344 229.914062 222.011719 220.652344 233.296875 214.453125 C 263.675781 197.742188 300.6875 197.539062 329.628906 217.40625 C 351.046875 232.101562 364.398438 252.261719 369.683594 277.886719 C 372.296875 290.484375 371.308594 302.34375 368 314.957031 C 365.28125 325.320312 362.324219 333.929688 356.808594 341.675781 Z M 278.609375 287.257812 C 288.644531 287.257812 296.375 291.246094 300.144531 300.785156 C 300.445312 301.546875 301.179688 302.050781 302 302.050781 L 353.980469 302.050781 C 354.523438 302.050781 354.984375 301.644531 355.046875 301.109375 C 356.527344 287.441406 354.78125 275.832031 348.769531 263.542969 C 345.707031 257.285156 343.488281 253.09375 342.105469 250.957031 C 336.003906 241.507812 327.964844 233.875 317.988281 228.0625 C 304.523438 220.222656 294.226562 216.605469 278.550781 216.621094 C 262.875 216.636719 252.578125 220.269531 239.113281 228.136719 C 229.15625 233.960938 221.132812 241.601562 215.042969 251.0625 C 213.671875 253.199219 211.460938 257.398438 208.410156 263.664062 C 202.410156 275.96875 200.679688 287.582031 202.195312 301.246094 C 202.265625 301.777344 202.722656 302.171875 203.261719 302.175781 L 255.238281 302.097656 C 256.058594 302.097656 256.796875 301.59375 257.09375 300.828125 C 260.84375 291.277344 268.574219 287.273438 278.609375 287.257812 Z M 278.609375 287.257812 " fill-opacity="1" fill-rule="nonzero"/></g><path fill="#ebf7f5" d="M 278.546875 216.621094 C 294.222656 216.605469 304.519531 220.222656 317.984375 228.0625 C 327.960938 233.875 336 241.507812 342.101562 250.957031 C 343.484375 253.09375 345.703125 257.285156 348.765625 263.542969 C 354.777344 275.832031 356.527344 287.441406 355.042969 301.109375 C 354.980469 301.644531 354.523438 302.050781 353.976562 302.050781 L 301.996094 302.050781 C 301.175781 302.050781 300.441406 301.550781 300.140625 300.785156 C 296.371094 291.246094 288.640625 287.253906 278.605469 287.253906 C 268.574219 287.269531 260.84375 291.277344 257.085938 300.832031 C 256.789062 301.59375 256.050781 302.097656 255.230469 302.097656 L 203.253906 302.175781 C 202.710938 302.175781 202.257812 301.777344 202.1875 301.25 C 200.671875 287.582031 202.402344 275.972656 208.402344 263.667969 C 211.449219 257.398438 213.664062 253.199219 215.03125 251.066406 C 221.125 241.605469 229.148438 233.960938 239.105469 228.140625 C 252.574219 220.269531 262.871094 216.636719 278.546875 216.621094 Z M 280.496094 224.433594 C 280.484375 223.5625 279.773438 222.867188 278.902344 222.875 L 277.511719 222.890625 C 276.640625 222.898438 275.945312 223.613281 275.953125 224.480469 L 276.078125 236.261719 C 276.085938 237.132812 276.800781 237.832031 277.667969 237.820312 L 279.058594 237.804688 C 279.929688 237.796875 280.628906 237.085938 280.621094 236.214844 Z M 301.222656 229.007812 C 301.53125 227.949219 300.929688 226.84375 299.871094 226.53125 L 299.25 226.347656 C 298.191406 226.039062 297.085938 226.640625 296.773438 227.699219 L 294.214844 236.390625 C 293.90625 237.445312 294.507812 238.554688 295.566406 238.867188 L 296.1875 239.050781 C 297.246094 239.359375 298.351562 238.753906 298.664062 237.699219 Z M 260.558594 228.480469 C 260.140625 227.296875 258.839844 226.679688 257.65625 227.097656 L 257.308594 227.222656 C 256.125 227.640625 255.507812 228.941406 255.925781 230.121094 L 258.691406 237.933594 C 259.109375 239.117188 260.410156 239.734375 261.589844 239.316406 L 261.941406 239.195312 C 263.125 238.773438 263.742188 237.476562 263.324219 236.292969 Z M 241.609375 236.972656 C 240.929688 236.050781 239.632812 235.855469 238.710938 236.535156 L 238.4375 236.734375 C 237.515625 237.414062 237.320312 238.710938 238 239.632812 L 243.410156 246.972656 C 244.089844 247.894531 245.386719 248.089844 246.308594 247.414062 L 246.582031 247.210938 C 247.503906 246.53125 247.699219 245.234375 247.019531 244.3125 Z M 318.871094 239.09375 C 319.472656 238.210938 319.246094 237.011719 318.363281 236.410156 L 318.035156 236.183594 C 317.152344 235.582031 315.949219 235.808594 315.347656 236.691406 L 310.050781 244.453125 C 309.449219 245.335938 309.679688 246.539062 310.558594 247.140625 L 310.890625 247.367188 C 311.773438 247.96875 312.972656 247.738281 313.574219 246.859375 Z M 281.667969 246.148438 C 281.667969 245.542969 281.179688 245.050781 280.570312 245.050781 L 276.800781 245.050781 C 276.195312 245.050781 275.699219 245.542969 275.699219 246.148438 L 275.699219 283.191406 C 275.699219 283.796875 276.191406 284.289062 276.800781 284.289062 L 280.570312 284.289062 C 281.175781 284.289062 281.667969 283.796875 281.667969 283.191406 Z M 333.957031 250.9375 C 333.277344 249.953125 331.929688 249.707031 330.945312 250.386719 L 323.335938 255.636719 C 322.351562 256.316406 322.105469 257.664062 322.785156 258.648438 L 322.890625 258.800781 C 323.570312 259.78125 324.914062 260.03125 325.902344 259.351562 L 333.511719 254.101562 C 334.492188 253.421875 334.742188 252.074219 334.0625 251.089844 Z M 234.746094 259 C 235.3125 258.15625 235.085938 257.011719 234.242188 256.449219 L 225.941406 250.890625 C 225.097656 250.328125 223.957031 250.554688 223.390625 251.398438 L 222.941406 252.066406 C 222.378906 252.910156 222.601562 254.054688 223.449219 254.617188 L 231.746094 260.171875 C 232.59375 260.738281 233.734375 260.511719 234.300781 259.667969 Z M 226.25 274.246094 C 226.664062 273.027344 226.011719 271.699219 224.792969 271.285156 L 216.246094 268.375 C 215.023438 267.960938 213.699219 268.613281 213.28125 269.832031 L 213.164062 270.183594 C 212.746094 271.40625 213.398438 272.730469 214.621094 273.144531 L 223.167969 276.054688 C 224.386719 276.46875 225.710938 275.820312 226.128906 274.597656 Z M 343.277344 269.6875 C 342.898438 268.519531 341.640625 267.878906 340.472656 268.257812 L 332.503906 270.847656 C 331.332031 271.226562 330.691406 272.484375 331.074219 273.652344 L 331.253906 274.214844 C 331.632812 275.382812 332.890625 276.023438 334.058594 275.644531 L 342.027344 273.054688 C 343.199219 272.675781 343.839844 271.417969 343.457031 270.246094 Z M 223.230469 290.300781 C 223.261719 289.464844 222.605469 288.761719 221.769531 288.734375 L 210.738281 288.347656 C 209.902344 288.320312 209.199219 288.972656 209.171875 289.808594 L 209.101562 291.757812 C 209.074219 292.59375 209.730469 293.292969 210.5625 293.324219 L 221.597656 293.707031 C 222.433594 293.738281 223.132812 293.082031 223.164062 292.246094 Z M 348.648438 290.035156 C 348.632812 289.078125 347.84375 288.316406 346.886719 288.328125 L 335.726562 288.507812 C 334.769531 288.519531 334.007812 289.308594 334.023438 290.265625 L 334.046875 291.625 C 334.058594 292.582031 334.847656 293.34375 335.804688 293.332031 L 346.964844 293.152344 C 347.921875 293.140625 348.683594 292.351562 348.667969 291.394531 Z M 348.648438 290.035156 " fill-opacity="1" fill-rule="nonzero"/><path fill="#191e5e" d="M 277.511719 222.890625 L 278.902344 222.875 C 279.773438 222.867188 280.484375 223.5625 280.492188 224.4375 L 280.617188 236.214844 C 280.628906 237.085938 279.929688 237.800781 279.058594 237.808594 L 277.664062 237.824219 C 276.796875 237.832031 276.082031 237.132812 276.074219 236.261719 L 275.949219 224.480469 C 275.941406 223.613281 276.640625 222.898438 277.511719 222.890625 Z M 277.511719 222.890625 " fill-opacity="1" fill-rule="nonzero"/><path fill="#191e5e" d="M 299.246094 226.347656 L 299.871094 226.53125 C 300.925781 226.84375 301.53125 227.953125 301.21875 229.007812 L 298.664062 237.699219 C 298.351562 238.757812 297.242188 239.359375 296.1875 239.050781 L 295.566406 238.867188 C 294.507812 238.554688 293.902344 237.445312 294.214844 236.390625 L 296.773438 227.699219 C 297.082031 226.640625 298.191406 226.039062 299.246094 226.347656 Z M 299.246094 226.347656 " fill-opacity="1" fill-rule="nonzero"/><path fill="#ebf7f5" d="M 22.40625 241.988281 C 25.847656 237.195312 29.113281 232.75 32.207031 228.648438 C 32.703125 227.976562 33.40625 227.375 34.324219 226.839844 C 34.574219 226.691406 34.898438 226.769531 35.046875 227.019531 C 35.121094 227.148438 35.140625 227.300781 35.097656 227.441406 L 31.945312 237.628906 C 31.800781 238.078125 32.050781 238.554688 32.503906 238.703125 C 32.589844 238.730469 32.675781 238.742188 32.761719 238.742188 L 40.398438 238.742188 C 40.84375 238.75 41.203125 239.109375 41.199219 239.546875 C 41.199219 239.726562 41.136719 239.902344 41.019531 240.042969 L 26.84375 257.433594 C 26.765625 257.515625 26.640625 257.515625 26.558594 257.4375 C 26.507812 257.386719 26.488281 257.316406 26.503906 257.246094 L 30.460938 244.492188 C 30.613281 243.980469 30.324219 243.4375 29.804688 243.28125 C 29.714844 243.257812 29.625 243.242188 29.535156 243.242188 L 23.054688 243.242188 C 22.621094 243.25 22.261719 242.902344 22.253906 242.464844 C 22.25 242.296875 22.304688 242.128906 22.40625 241.988281 Z M 22.40625 241.988281 " fill-opacity="1" fill-rule="nonzero"/><path fill="#191e5e" d="M 257.308594 227.222656 L 257.65625 227.097656 C 258.839844 226.679688 260.140625 227.296875 260.558594 228.480469 L 263.324219 236.292969 C 263.742188 237.476562 263.125 238.773438 261.941406 239.195312 L 261.589844 239.316406 C 260.40625 239.734375 259.109375 239.117188 258.691406 237.933594 L 255.925781 230.121094 C 255.507812 228.941406 256.125 227.640625 257.308594 227.222656 Z M 257.308594 227.222656 " fill-opacity="1" fill-rule="nonzero"/><path fill="#191e5e" d="M 238.4375 236.734375 L 238.710938 236.535156 C 239.632812 235.855469 240.929688 236.050781 241.609375 236.972656 L 247.019531 244.3125 C 247.699219 245.234375 247.503906 246.53125 246.582031 247.210938 L 246.308594 247.414062 C 245.386719 248.09375 244.089844 247.894531 243.410156 246.972656 L 238 239.632812 C 237.320312 238.710938 237.515625 237.414062 238.4375 236.734375 Z M 238.4375 236.734375 " fill-opacity="1" fill-rule="nonzero"/><path fill="#191e5e" d="M 318.035156 236.179688 L 318.363281 236.40625 C 319.246094 237.007812 319.472656 238.210938 318.871094 239.089844 L 313.574219 246.855469 C 312.972656 247.738281 311.773438 247.964844 310.890625 247.363281 L 310.558594 247.136719 C 309.679688 246.535156 309.449219 245.335938 310.050781 244.453125 L 315.347656 236.6875 C 315.949219 235.804688 317.148438 235.582031 318.035156 236.179688 Z M 318.035156 236.179688 " fill-opacity="1" fill-rule="nonzero"/><path fill="#191e5e" d="M 276.800781 245.050781 L 280.574219 245.050781 C 281.179688 245.050781 281.671875 245.542969 281.671875 246.148438 L 281.671875 283.191406 C 281.671875 283.796875 281.179688 284.289062 280.574219 284.289062 L 276.800781 284.289062 C 276.195312 284.289062 275.703125 283.796875 275.703125 283.191406 L 275.703125 246.148438 C 275.703125 245.542969 276.195312 245.050781 276.800781 245.050781 Z M 276.800781 245.050781 " fill-opacity="1" fill-rule="nonzero"/><path fill="#191e5e" d="M 323.335938 255.632812 L 330.945312 250.382812 C 331.929688 249.703125 333.277344 249.953125 333.957031 250.9375 L 334.0625 251.089844 C 334.742188 252.070312 334.492188 253.417969 333.511719 254.097656 L 325.902344 259.347656 C 324.917969 260.027344 323.570312 259.78125 322.890625 258.796875 L 322.785156 258.644531 C 322.105469 257.664062 322.351562 256.3125 323.335938 255.632812 Z M 323.335938 255.632812 " fill-opacity="1" fill-rule="nonzero"/><path fill="#191e5e" d="M 225.941406 250.890625 L 234.238281 256.449219 C 235.082031 257.011719 235.308594 258.15625 234.746094 259 L 234.296875 259.667969 C 233.734375 260.511719 232.589844 260.738281 231.746094 260.171875 L 223.449219 254.617188 C 222.601562 254.054688 222.378906 252.910156 222.941406 252.066406 L 223.386719 251.398438 C 223.953125 250.554688 225.097656 250.328125 225.941406 250.890625 Z M 225.941406 250.890625 " fill-opacity="1" fill-rule="nonzero"/><path fill="#191e5e" d="M 216.246094 268.375 L 224.792969 271.285156 C 226.011719 271.699219 226.664062 273.027344 226.25 274.246094 L 226.128906 274.597656 C 225.714844 275.820312 224.386719 276.46875 223.167969 276.054688 L 214.621094 273.144531 C 213.398438 272.730469 212.746094 271.402344 213.164062 270.183594 L 213.28125 269.832031 C 213.699219 268.609375 215.023438 267.960938 216.246094 268.375 Z M 216.246094 268.375 " fill-opacity="1" fill-rule="nonzero"/><path fill="#191e5e" d="M 332.5 270.851562 L 340.46875 268.261719 C 341.636719 267.882812 342.894531 268.519531 343.273438 269.691406 L 343.457031 270.25 C 343.835938 271.417969 343.199219 272.675781 342.027344 273.054688 L 334.058594 275.644531 C 332.890625 276.023438 331.632812 275.386719 331.253906 274.214844 L 331.070312 273.65625 C 330.691406 272.484375 331.332031 271.230469 332.5 270.851562 Z M 332.5 270.851562 " fill-opacity="1" fill-rule="nonzero"/><path fill="#191e5e" d="M 210.738281 288.347656 L 221.769531 288.734375 C 222.605469 288.761719 223.261719 289.464844 223.230469 290.300781 L 223.164062 292.246094 C 223.132812 293.082031 222.429688 293.738281 221.597656 293.707031 L 210.5625 293.324219 C 209.726562 293.292969 209.074219 292.589844 209.101562 291.757812 L 209.171875 289.808594 C 209.199219 288.972656 209.902344 288.320312 210.738281 288.347656 Z M 210.738281 288.347656 " fill-opacity="1" fill-rule="nonzero"/><path fill="#191e5e" d="M 335.730469 288.503906 L 346.890625 288.328125 C 347.84375 288.3125 348.632812 289.078125 348.648438 290.03125 L 348.671875 291.394531 C 348.6875 292.347656 347.921875 293.136719 346.96875 293.152344 L 335.804688 293.328125 C 334.851562 293.34375 334.0625 292.578125 334.046875 291.625 L 334.023438 290.261719 C 334.007812 289.304688 334.769531 288.519531 335.730469 288.503906 Z M 335.730469 288.503906 " fill-opacity="1" fill-rule="nonzero"/><g clip-path="url(#0bcbf63675)"><path fill="#242e43" d="M 155.277344 173.910156 L 63.320312 173.910156 L 63.320312 104.996094 L 67.375 104.996094 L 67.375 169.863281 L 155.277344 169.863281 Z M 155.277344 173.910156 " fill-opacity="1" fill-rule="nonzero"/></g><path fill="#192041" d="M 74.300781 101.613281 L 68.035156 101.613281 C 68.035156 101.613281 63.496094 101.613281 63.496094 101.613281 L 57.230469 101.613281 C 57.230469 101.613281 56.609375 109.9375 65.050781 110.457031 L 66.480469 110.457031 C 74.921875 109.945312 74.308594 101.613281 74.308594 101.613281 Z M 74.300781 101.613281 " fill-opacity="1" fill-rule="nonzero"/><path fill="#192041" d="M 74.1875 104.589844 C 74.597656 102.988281 74.507812 101.6875 74.507812 101.589844 L 74.492188 101.40625 L 57.039062 101.40625 C 57.039062 101.40625 57.023438 101.582031 57.023438 101.582031 C 57.023438 101.671875 56.929688 102.984375 57.335938 104.582031 C 57.617188 105.683594 58.136719 106.941406 59.082031 108.023438 C 60.46875 109.613281 62.46875 110.496094 65.035156 110.648438 L 66.480469 110.648438 C 69.042969 110.496094 71.042969 109.613281 72.425781 108.03125 C 73.375 106.941406 73.902344 105.691406 74.183594 104.582031 Z M 74.1875 104.589844 " fill-opacity="1" fill-rule="nonzero"/><g clip-path="url(#59e25c9a5f)"><path fill="#fec432" d="M 97.960938 44.230469 C 97.367188 36.738281 93.8125 29.632812 88.535156 24.328125 C 82.742188 18.503906 75.574219 15.75 67.398438 15.625 C 66.652344 15.609375 65.910156 15.609375 65.164062 15.609375 C 64.414062 15.609375 63.667969 15.609375 62.925781 15.617188 C 54.75 15.734375 47.582031 18.480469 41.785156 24.296875 C 36.503906 29.605469 32.941406 36.703125 32.34375 44.191406 C 32.296875 44.722656 32.269531 45.265625 32.261719 45.804688 C 32.0625 54.25 35.246094 62.746094 41.488281 67.777344 C 44.398438 70.125 49.839844 74.007812 54.5 91.703125 C 54.757812 92.703125 56.4375 92.183594 57.4375 92.089844 C 57.503906 92.089844 57.578125 92.082031 57.644531 92.074219 C 57.644531 92.074219 57.644531 92.082031 57.644531 92.089844 C 58.015625 92.171875 58.402344 92.199219 58.773438 92.191406 C 60.90625 92.125 63.015625 92.015625 65.132812 91.949219 C 67.242188 92.015625 69.355469 92.132812 71.492188 92.199219 C 71.863281 92.214844 72.25 92.175781 72.621094 92.105469 C 72.621094 92.105469 72.621094 92.097656 72.621094 92.089844 C 72.6875 92.089844 72.761719 92.097656 72.828125 92.105469 C 73.828125 92.199219 75.5 92.71875 75.765625 91.71875 C 80.453125 74.023438 85.898438 70.144531 88.808594 67.808594 C 95.058594 62.78125 98.25 54.285156 98.054688 45.84375 C 98.042969 45.300781 98.019531 44.769531 97.976562 44.230469 Z M 97.960938 44.230469 " fill-opacity="1" fill-rule="nonzero"/></g><g clip-path="url(#b3f04dac5b)"><path fill="#242e43" d="M 88.792969 67.800781 C 85.882812 70.136719 80.433594 74.015625 75.75 91.710938 C 75.484375 92.710938 73.8125 92.183594 72.8125 92.097656 C 72.746094 92.089844 72.671875 92.089844 72.605469 92.082031 L 72.605469 92.097656 C 72.234375 92.171875 71.847656 92.207031 71.480469 92.191406 C 69.347656 92.125 67.230469 92.007812 65.117188 91.941406 C 63.007812 92.007812 60.898438 92.117188 58.757812 92.183594 C 58.386719 92.199219 58 92.164062 57.632812 92.082031 L 57.632812 92.066406 C 57.566406 92.066406 57.492188 92.074219 57.417969 92.082031 C 56.417969 92.171875 54.742188 92.6875 54.484375 91.695312 C 51.65625 80.957031 48.539062 75.304688 45.871094 71.996094 L 45.953125 71.972656 C 47.664062 73.585938 49.234375 74.503906 52.597656 75.1875 C 57.453125 76.164062 62.527344 76.066406 67.332031 74.84375 C 73.359375 73.3125 78.90625 70.019531 83.1875 65.511719 C 83.875 65.0625 84.535156 64.589844 85.179688 64.070312 C 91.695312 58.875 95.367188 50.496094 95.796875 42.265625 C 95.960938 39.1875 95.628906 36.09375 94.835938 33.136719 C 96.546875 36.597656 97.640625 40.359375 97.953125 44.222656 C 97.996094 44.753906 98.027344 45.292969 98.035156 45.828125 C 98.226562 54.269531 95.035156 62.765625 88.785156 67.792969 Z M 88.792969 67.800781 " fill-opacity="0.15" fill-rule="nonzero"/></g><path fill="#192041" d="M 78.949219 89.542969 C 79.660156 89.882812 80.152344 90.609375 80.136719 91.445312 C 80.121094 92.273438 79.609375 92.992188 78.890625 93.308594 C 79.601562 93.648438 80.089844 94.375 80.078125 95.210938 C 80.0625 96.039062 79.550781 96.757812 78.832031 97.078125 C 79.542969 97.417969 80.03125 98.140625 80.015625 98.972656 C 80.003906 99.808594 79.492188 100.519531 78.773438 100.835938 C 79.484375 101.175781 79.972656 101.902344 79.957031 102.738281 C 79.941406 103.878906 78.996094 104.796875 77.855469 104.78125 L 52.019531 104.402344 C 50.878906 104.386719 49.960938 103.441406 49.972656 102.300781 C 49.988281 101.464844 50.5 100.753906 51.21875 100.4375 C 50.894531 100.28125 50.609375 100.042969 50.402344 99.75 C 50.160156 99.40625 50.019531 98.984375 50.027344 98.535156 C 50.039062 97.699219 50.550781 96.988281 51.269531 96.667969 C 50.558594 96.328125 50.070312 95.605469 50.078125 94.769531 C 50.09375 93.929688 50.605469 93.222656 51.320312 92.902344 C 50.609375 92.5625 50.121094 91.835938 50.128906 91 C 50.144531 90.164062 50.65625 89.453125 51.375 89.136719 C 50.664062 88.796875 50.175781 88.070312 50.183594 87.234375 C 50.1875 86.589844 50.5 86.011719 50.972656 85.644531 C 51.113281 85.53125 51.261719 85.441406 51.425781 85.367188 C 50.714844 85.027344 50.226562 84.304688 50.234375 83.46875 C 50.25 82.328125 51.195312 81.410156 52.335938 81.425781 L 78.171875 81.800781 C 79.3125 81.816406 80.230469 82.765625 80.21875 83.902344 C 80.203125 84.738281 79.691406 85.449219 78.972656 85.769531 C 79.683594 86.109375 80.171875 86.835938 80.15625 87.671875 C 80.144531 88.507812 79.632812 89.21875 78.914062 89.535156 Z M 78.949219 89.542969 " fill-opacity="1" fill-rule="nonzero"/><path fill="#192041" d="M 69.359375 89.578125 C 68.125 78.929688 69.464844 68 73.242188 57.964844 C 73.441406 57.425781 73.65625 56.890625 73.863281 56.359375 C 74.8125 53.929688 75.789062 51.421875 76.046875 48.839844 C 76.320312 46.101562 75.640625 42.519531 72.929688 40.675781 C 70.828125 39.25 67.738281 39.367188 65.746094 40.949219 C 65.667969 41.015625 65.585938 41.082031 65.503906 41.15625 C 66.132812 42.703125 66.125 44.539062 65.429688 46.175781 C 65.125 46.886719 64.421875 47.25 63.675781 47.078125 C 62.925781 46.90625 62.453125 46.277344 62.480469 45.507812 C 62.546875 43.808594 63.207031 42.171875 64.28125 40.949219 C 64.175781 40.773438 64.066406 40.601562 63.941406 40.441406 C 62.3125 38.332031 58.875 37.84375 56.726562 39.425781 C 53.417969 41.867188 54.023438 47.152344 54.765625 50.917969 L 61.910156 87.085938 L 60.917969 87.285156 L 53.773438 51.117188 C 52.972656 47.085938 52.351562 41.394531 56.128906 38.613281 C 58.742188 36.6875 62.769531 37.25 64.746094 39.816406 C 64.851562 39.949219 64.941406 40.085938 65.027344 40.226562 C 65.058594 40.203125 65.089844 40.179688 65.117188 40.152344 C 67.480469 38.269531 71.003906 38.136719 73.5 39.832031 C 76.582031 41.917969 77.359375 45.902344 77.0625 48.929688 C 76.796875 51.652344 75.789062 54.226562 74.8125 56.722656 C 74.605469 57.253906 74.398438 57.785156 74.195312 58.320312 C 70.480469 68.207031 69.152344 78.976562 70.375 89.460938 L 69.367188 89.578125 Z M 64.726562 42.007812 C 63.984375 43.007812 63.539062 44.257812 63.488281 45.554688 C 63.472656 45.878906 63.6875 46.042969 63.894531 46.09375 C 64.105469 46.136719 64.363281 46.078125 64.496094 45.78125 C 65.015625 44.5625 65.082031 43.207031 64.734375 42.015625 Z M 64.726562 42.007812 " fill-opacity="1" fill-rule="nonzero"/></g></g></svg>