<svg xmlns="http://www.w3.org/2000/svg" xmlns:xlink="http://www.w3.org/1999/xlink" width="794" zoomAndPan="magnify" viewBox="0 0 595.5 842.249979" height="1123" preserveAspectRatio="xMidYMid meet" version="1.0"><defs><clipPath id="9ce8bd2262"><path d="M 7 0.8125 L 155 0.8125 L 155 154 L 7 154 Z M 7 0.8125 " clip-rule="nonzero"/></clipPath><clipPath id="65de87d3ad"><path d="M 6.566406 54 L 161.363281 54 L 161.363281 166.476562 L 6.566406 166.476562 Z M 6.566406 54 " clip-rule="nonzero"/></clipPath><clipPath id="0fec8dbe6f"><path d="M 96.929688 111.332031 L 161.394531 111.332031 L 161.394531 183.292969 L 96.929688 183.292969 Z M 96.929688 111.332031 " clip-rule="nonzero"/></clipPath><clipPath id="982e6c1579"><path d="M 106 111.332031 L 146 111.332031 L 146 132 L 106 132 Z M 106 111.332031 " clip-rule="nonzero"/></clipPath><clipPath id="9f548c1824"><path d="M 28 68 L 66.535156 68 L 66.535156 110 L 28 110 Z M 28 68 " clip-rule="nonzero"/></clipPath><clipPath id="7d902fd9d7"><path d="M 25 56.257812 L 50 56.257812 L 50 110.980469 L 25 110.980469 Z M 25 56.257812 " clip-rule="nonzero"/></clipPath><clipPath id="0b39d571aa"><path d="M 6.566406 56.257812 L 66.535156 56.257812 L 66.535156 110.980469 L 6.566406 110.980469 Z M 6.566406 56.257812 " clip-rule="nonzero"/></clipPath><clipPath id="a578536561"><rect x="0" width="162" y="0" height="184"/></clipPath></defs><g transform="matrix(1, 0, 0, 1, 149, 321)"><g clip-path="url(#a578536561)"><g clip-path="url(#9ce8bd2262)"><path fill="#2c4369" d="M 141.703125 3.335938 C 139.59375 4.726562 132.46875 9.34375 125.84375 13.609375 C 113.832031 21.304688 113.808594 21.328125 113.808594 22.171875 L 113.808594 23.015625 L 118.746094 25.175781 C 121.449219 26.367188 123.710938 27.386719 123.734375 27.410156 C 123.957031 27.632812 119.960938 36.890625 117.28125 42.375 C 101.25 75.136719 75.585938 105.464844 43.199219 129.960938 C 32.699219 137.902344 23.492188 143.957031 10.1875 151.675781 C 8.75 152.496094 7.65625 153.191406 7.757812 153.191406 C 8.226562 153.191406 15.425781 150.609375 19 149.171875 C 51.238281 136.015625 82.832031 113.929688 107.527344 87.273438 C 118 75.957031 127.332031 63.71875 135.101562 51.160156 C 136.914062 48.183594 141.207031 40.5625 142.597656 37.757812 C 143.117188 36.742188 143.5625 35.875 143.589844 35.847656 C 143.640625 35.800781 145.824219 36.71875 148.476562 37.882812 C 151.109375 39.050781 153.441406 40.019531 153.664062 40.019531 C 154.1875 40.019531 154.632812 39.523438 154.632812 38.902344 C 154.632812 38.605469 153.640625 33.34375 152.425781 27.210938 C 151.183594 21.082031 149.570312 12.867188 148.824219 8.945312 C 148.082031 5.023438 147.335938 1.597656 147.1875 1.324219 C 146.667969 0.332031 145.75 0.679688 141.703125 3.335938 Z M 141.703125 3.335938 " fill-opacity="1" fill-rule="nonzero"/></g><g clip-path="url(#65de87d3ad)"><path fill="#2c4369" d="M 146.691406 54.984375 C 146.320312 55.15625 144.558594 57.566406 142.347656 60.890625 C 136.789062 69.230469 130.957031 76.898438 125.171875 83.5 L 122.617188 86.402344 L 122.617188 166.59375 L 113.683594 166.59375 L 113.683594 134.253906 C 113.683594 102.289062 113.683594 101.941406 113.1875 101.121094 C 112.914062 100.675781 112.292969 100.128906 111.796875 99.929688 C 110.457031 99.359375 109.414062 99.78125 107.503906 101.667969 C 102.664062 106.382812 93.652344 114.199219 87.796875 118.769531 L 85.636719 120.480469 L 85.636719 166.59375 L 76.703125 166.59375 L 76.703125 149.445312 C 76.703125 130.632812 76.753906 131.175781 75.238281 130.285156 C 73.800781 129.441406 73.300781 129.613281 68.910156 132.46875 C 65.113281 134.949219 55.78125 140.507812 51.835938 142.667969 L 48.65625 144.378906 L 48.65625 166.59375 L 39.722656 166.59375 L 39.722656 159.941406 C 39.722656 153.738281 39.699219 153.265625 39.226562 152.496094 C 38.953125 152.050781 38.308594 151.503906 37.8125 151.304688 C 36.746094 150.859375 36.84375 150.832031 30.914062 153.289062 C 26.269531 155.226562 17.609375 158.503906 13.984375 159.667969 L 11.429688 160.488281 L 11.429688 166.59375 L 0.238281 166.59375 L 0.386719 175.03125 L 161.335938 175.03125 L 161.335938 166.59375 L 150.664062 166.59375 L 150.664062 111.546875 C 150.664062 62.082031 150.613281 56.449219 150.265625 55.953125 C 149.472656 54.808594 147.882812 54.363281 146.691406 54.984375 Z M 146.691406 54.984375 " fill-opacity="1" fill-rule="nonzero"/></g><g clip-path="url(#0fec8dbe6f)"><path fill="#000000" d="M 161.113281 168.035156 C 156.382812 172.40625 151.734375 176.871094 146.554688 180.722656 C 145.539062 181.480469 144.46875 182.171875 143.410156 182.878906 C 142.8125 183.28125 142.160156 183.394531 141.425781 183.320312 C 139.285156 183.097656 137.136719 182.957031 134.992188 182.765625 C 132.542969 182.542969 130.09375 182.320312 127.644531 182.0625 C 125.464844 181.832031 123.285156 181.59375 121.117188 181.28125 C 118.175781 180.859375 115.238281 180.40625 112.316406 179.882812 C 109.535156 179.386719 106.769531 178.800781 104.003906 178.210938 C 102.222656 177.832031 100.457031 177.378906 98.6875 176.949219 C 97.882812 176.753906 97.710938 176.484375 97.800781 175.625 C 97.808594 175.546875 97.800781 175.464844 97.800781 175.355469 C 97.042969 175.152344 96.917969 174.570312 96.960938 173.910156 C 97.054688 172.375 97.136719 170.839844 97.265625 169.308594 C 97.429688 167.347656 97.613281 165.386719 97.828125 163.429688 C 98.070312 161.230469 98.328125 159.027344 98.621094 156.835938 C 98.988281 154.09375 99.359375 151.347656 99.804688 148.617188 C 100.480469 144.472656 101.144531 140.324219 101.949219 136.199219 C 102.839844 131.613281 103.839844 127.050781 104.867188 122.496094 C 105.570312 119.378906 106.40625 116.292969 107.1875 113.195312 C 107.335938 112.605469 107.34375 112.585938 107.972656 112.582031 C 109.121094 112.570312 110.269531 112.585938 111.417969 112.59375 C 111.746094 112.59375 112.074219 112.59375 112.386719 112.59375 C 112.679688 112.289062 112.917969 112 113.195312 111.761719 C 113.511719 111.492188 113.898438 111.355469 114.328125 111.363281 C 114.90625 111.371094 115.332031 111.707031 115.472656 112.289062 C 115.515625 112.460938 115.523438 112.644531 115.546875 112.839844 C 117.03125 112.929688 118.503906 113.015625 119.972656 113.121094 C 120.226562 113.136719 120.378906 113.035156 120.558594 112.871094 C 120.828125 112.625 121.125 112.386719 121.453125 112.246094 C 122.445312 111.8125 123.1875 112.222656 123.40625 113.324219 C 123.75 113.367188 124.105469 113.425781 124.46875 113.457031 C 125.652344 113.566406 126.835938 113.65625 128.019531 113.773438 C 128.269531 113.796875 128.441406 113.75 128.613281 113.5625 C 128.910156 113.234375 129.304688 113.070312 129.734375 112.96875 C 130.691406 112.742188 131.21875 113.074219 131.425781 114.101562 C 132.035156 114.175781 132.660156 114.261719 133.289062 114.332031 C 134.246094 114.441406 135.203125 114.523438 136.160156 114.644531 C 136.4375 114.679688 136.605469 114.597656 136.816406 114.433594 C 137.132812 114.1875 137.488281 113.949219 137.863281 113.835938 C 138.875 113.53125 139.585938 114.007812 139.773438 115.101562 C 140.519531 115.21875 141.285156 115.339844 142.046875 115.457031 C 142.1875 115.480469 142.332031 115.488281 142.472656 115.527344 C 142.835938 115.632812 143.117188 115.566406 143.394531 115.261719 C 143.742188 114.871094 144.210938 114.648438 144.742188 114.601562 C 145.574219 114.523438 146.125 114.949219 146.273438 115.765625 C 146.292969 115.882812 146.308594 116.003906 146.328125 116.136719 C 147.023438 116.28125 147.703125 116.433594 148.382812 116.570312 C 148.941406 116.679688 149.367188 116.957031 149.605469 117.5 C 149.84375 117.550781 150.082031 117.636719 150.320312 117.648438 C 150.796875 117.675781 151.003906 117.953125 151.125 118.363281 C 151.363281 119.167969 151.628906 119.96875 151.84375 120.777344 C 153.734375 127.890625 155.359375 135.0625 156.816406 142.273438 C 158.097656 148.621094 159.210938 155 160.261719 161.390625 C 160.59375 163.390625 160.949219 165.390625 161.304688 167.386719 C 161.351562 167.644531 161.324219 167.84375 161.113281 168.035156 Z M 161.113281 168.035156 " fill-opacity="1" fill-rule="nonzero"/></g><path fill="#ffffff" d="M 107.703125 113.074219 C 109.199219 113.113281 110.667969 113.148438 112.175781 113.1875 C 112.0625 114.171875 112.453125 114.8125 113.230469 115.230469 C 113.703125 115.488281 113.980469 115.449219 114.265625 115.105469 C 114.542969 114.765625 114.519531 114.460938 114.1875 114.0625 C 113.9375 113.769531 113.9375 113.769531 113.949219 113.347656 C 115.960938 113.472656 117.972656 113.597656 120.011719 113.726562 C 119.9375 114.546875 120.167969 115.195312 120.800781 115.660156 C 120.949219 115.769531 121.109375 115.867188 121.277344 115.933594 C 121.574219 116.050781 121.882812 115.945312 122.09375 115.683594 C 122.308594 115.421875 122.320312 115.21875 122.101562 114.902344 C 121.886719 114.597656 121.628906 114.316406 121.898438 113.835938 C 123.898438 114.019531 125.925781 114.199219 127.980469 114.386719 C 127.980469 114.707031 127.957031 114.972656 127.984375 115.234375 C 128.058594 115.9375 128.347656 116.488281 129.082031 116.710938 C 129.484375 116.832031 129.773438 116.742188 130.046875 116.398438 C 130.285156 116.105469 130.121094 115.867188 129.964844 115.621094 C 129.890625 115.5 129.78125 115.390625 129.726562 115.265625 C 129.566406 114.894531 129.816406 114.53125 130.195312 114.574219 C 132.109375 114.789062 134.023438 115.011719 135.9375 115.230469 C 135.996094 115.238281 136.050781 115.273438 136.148438 115.308594 C 136.128906 115.539062 136.105469 115.777344 136.097656 116.015625 C 136.070312 116.875 136.46875 117.472656 137.265625 117.78125 C 137.609375 117.917969 138.128906 117.683594 138.410156 117.273438 C 138.628906 116.953125 138.613281 116.769531 138.28125 116.40625 C 138.0625 116.164062 137.867188 115.9375 138.148438 115.542969 C 139.636719 115.671875 141.136719 115.933594 142.636719 116.175781 C 142.636719 116.496094 142.628906 116.777344 142.636719 117.058594 C 142.65625 117.628906 142.914062 118.082031 143.355469 118.425781 C 143.78125 118.757812 144.277344 118.730469 144.648438 118.390625 C 144.972656 118.097656 145.015625 117.859375 144.8125 117.46875 C 144.574219 117 144.574219 117 144.78125 116.53125 C 145.148438 116.578125 145.53125 116.628906 145.910156 116.683594 C 146.640625 116.789062 147.371094 116.898438 148.101562 117 C 148.769531 117.09375 149.085938 117.476562 149.015625 118.171875 C 148.953125 118.824219 148.867188 119.476562 148.773438 120.125 C 147.96875 125.457031 147.148438 130.785156 146.367188 136.117188 C 145.769531 140.214844 145.195312 144.316406 144.65625 148.421875 C 144.234375 151.613281 143.855469 154.808594 143.5 158.007812 C 143.078125 161.796875 142.6875 165.589844 142.308594 169.386719 C 141.988281 172.589844 141.710938 175.796875 141.394531 179 C 141.316406 179.792969 141.175781 180.582031 141.054688 181.371094 C 141.042969 181.46875 140.992188 181.558594 140.945312 181.695312 C 140.648438 181.65625 140.371094 181.605469 140.089844 181.578125 C 138.722656 181.449219 137.355469 181.328125 135.988281 181.195312 C 134.007812 181 132.027344 180.820312 130.054688 180.59375 C 127.652344 180.316406 125.25 180.03125 122.859375 179.683594 C 120.222656 179.308594 117.585938 178.914062 114.96875 178.433594 C 111.085938 177.710938 107.207031 176.933594 103.339844 176.125 C 101.601562 175.757812 99.886719 175.257812 98.164062 174.8125 C 97.949219 174.753906 97.738281 174.671875 97.484375 174.589844 C 97.484375 174.214844 97.457031 173.847656 97.488281 173.484375 C 97.835938 169.730469 98.15625 165.96875 98.558594 162.21875 C 99.257812 155.757812 100.203125 149.324219 101.316406 142.921875 C 102.71875 134.824219 104.382812 126.777344 106.386719 118.804688 C 106.730469 117.429688 107.078125 116.058594 107.40625 114.6875 C 107.519531 114.191406 107.59375 113.683594 107.703125 113.074219 Z M 139.328125 171.5 C 138.875 171.390625 138.5 171.28125 138.121094 171.210938 C 134.71875 170.582031 131.324219 169.90625 127.910156 169.359375 C 124.007812 168.734375 120.09375 168.199219 116.175781 167.675781 C 113.558594 167.324219 110.929688 167.046875 108.304688 166.761719 C 105.796875 166.496094 103.289062 166.257812 100.78125 166.015625 C 100.253906 165.964844 100.085938 166.082031 99.929688 166.585938 C 99.878906 166.742188 99.847656 166.902344 99.828125 167.066406 C 99.664062 168.632812 99.492188 170.203125 99.351562 171.777344 C 99.246094 172.902344 99.332031 173.03125 100.433594 173.285156 C 101.792969 173.601562 103.152344 173.898438 104.519531 174.144531 C 109.761719 175.074219 115.003906 176.007812 120.253906 176.890625 C 125.144531 177.710938 130.019531 178.625 134.964844 179.027344 C 135.820312 179.097656 136.679688 179.148438 137.535156 179.105469 C 138.246094 179.070312 138.328125 178.9375 138.429688 178.25 C 138.683594 176.527344 138.921875 174.804688 139.160156 173.074219 C 139.230469 172.574219 139.269531 172.066406 139.328125 171.5 Z M 111.914062 116.683594 C 111.914062 116.699219 111.910156 116.714844 111.910156 116.730469 C 110.886719 116.683594 109.863281 116.644531 108.839844 116.59375 C 108.179688 116.5625 108.113281 116.605469 107.960938 117.246094 C 107.726562 118.21875 107.476562 119.195312 107.257812 120.175781 C 107.136719 120.734375 107.035156 121.300781 106.96875 121.867188 C 106.917969 122.335938 107.050781 122.488281 107.503906 122.625 C 107.792969 122.714844 108.097656 122.792969 108.402344 122.828125 C 110.070312 123.011719 111.742188 123.1875 113.414062 123.355469 C 115.722656 123.589844 118.027344 123.808594 120.328125 124.050781 C 122.328125 124.261719 124.324219 124.480469 126.316406 124.722656 C 128.433594 124.980469 130.546875 125.257812 132.660156 125.539062 C 134.871094 125.835938 137.082031 126.15625 139.292969 126.460938 C 141.019531 126.703125 142.742188 126.9375 144.46875 127.191406 C 144.800781 127.238281 145.117188 127.191406 145.320312 126.964844 C 145.53125 126.734375 145.703125 126.425781 145.78125 126.121094 C 146.167969 124.652344 146.457031 123.164062 146.578125 121.648438 C 146.632812 120.96875 146.578125 120.894531 145.878906 120.757812 C 144.371094 120.460938 142.867188 120.144531 141.351562 119.902344 C 138.015625 119.375 134.667969 118.886719 131.324219 118.386719 C 127.695312 117.84375 124.042969 117.488281 120.382812 117.207031 C 117.566406 116.992188 114.738281 116.855469 111.914062 116.683594 Z M 139.222656 134.769531 C 139.097656 135.355469 138.972656 135.871094 138.882812 136.394531 C 138.722656 137.363281 138.5625 138.332031 138.453125 139.308594 C 138.402344 139.777344 138.511719 139.878906 138.988281 139.949219 C 139.898438 140.085938 140.8125 140.207031 141.722656 140.328125 C 142.363281 140.414062 142.402344 140.390625 142.515625 139.734375 C 142.695312 138.683594 142.855469 137.632812 143.015625 136.582031 C 143.058594 136.28125 143.101562 135.96875 143.097656 135.664062 C 143.097656 135.230469 142.988281 135.101562 142.578125 135.050781 C 141.707031 134.933594 140.832031 134.832031 139.957031 134.738281 C 139.742188 134.71875 139.519531 134.757812 139.222656 134.769531 Z M 135.195312 134.238281 C 135.195312 134.25 135.191406 134.257812 135.191406 134.269531 C 135.089844 134.269531 134.988281 134.265625 134.882812 134.269531 C 133.621094 134.292969 133.59375 134.300781 133.347656 135.515625 C 133.15625 136.457031 132.988281 137.410156 132.839844 138.359375 C 132.71875 139.125 132.925781 139.382812 133.679688 139.472656 C 134.3125 139.550781 134.945312 139.617188 135.574219 139.675781 C 136.402344 139.753906 136.515625 139.667969 136.691406 138.832031 C 136.839844 138.132812 136.96875 137.425781 137.097656 136.71875 C 137.195312 136.195312 137.304688 135.671875 137.371094 135.144531 C 137.449219 134.558594 137.363281 134.464844 136.785156 134.394531 C 136.253906 134.335938 135.722656 134.292969 135.195312 134.238281 Z M 120.042969 152.222656 C 120.078125 152.921875 120.101562 152.980469 120.753906 153.101562 C 121.519531 153.238281 122.289062 153.347656 123.0625 153.433594 C 123.5625 153.488281 123.757812 153.320312 123.894531 152.824219 C 123.925781 152.703125 123.949219 152.582031 123.972656 152.460938 C 124.1875 151.441406 124.421875 150.421875 124.613281 149.394531 C 124.726562 148.796875 124.53125 148.570312 123.933594 148.476562 C 123.851562 148.460938 123.769531 148.460938 123.6875 148.453125 C 122.933594 148.378906 122.179688 148.308594 121.425781 148.230469 C 121.003906 148.1875 120.859375 148.242188 120.761719 148.675781 C 120.5 149.851562 120.277344 151.039062 120.042969 152.222656 Z M 121.84375 140.53125 C 121.769531 140.828125 121.695312 141.058594 121.660156 141.296875 C 121.46875 142.527344 121.257812 143.753906 121.109375 144.988281 C 121.035156 145.59375 121.273438 145.875 121.867188 145.96875 C 122.671875 146.089844 123.488281 146.183594 124.300781 146.25 C 124.800781 146.289062 124.910156 146.195312 125.023438 145.703125 C 125.238281 144.765625 125.449219 143.828125 125.613281 142.882812 C 125.71875 142.289062 125.742188 141.675781 125.804688 141.011719 C 124.46875 140.703125 123.164062 140.699219 121.84375 140.53125 Z M 125.898438 138.566406 C 126.101562 137.675781 126.324219 136.824219 126.492188 135.960938 C 126.621094 135.277344 126.6875 134.585938 126.769531 133.894531 C 126.800781 133.648438 126.738281 133.457031 126.433594 133.414062 C 125.402344 133.265625 124.371094 133.105469 123.335938 132.949219 C 123.074219 132.910156 122.902344 133.019531 122.824219 133.277344 C 122.777344 133.433594 122.71875 133.585938 122.6875 133.746094 C 122.464844 134.933594 122.234375 136.121094 122.035156 137.3125 C 121.914062 138.015625 122.085938 138.222656 122.816406 138.332031 C 123.382812 138.417969 123.949219 138.507812 124.519531 138.558594 C 124.945312 138.59375 125.375 138.566406 125.898438 138.566406 Z M 139.4375 142.328125 C 139.4375 142.347656 139.433594 142.367188 139.433594 142.386719 C 139.082031 142.386719 138.734375 142.363281 138.386719 142.390625 C 137.875 142.429688 137.816406 142.5 137.722656 143.019531 C 137.523438 144.105469 137.328125 145.195312 137.136719 146.28125 C 137.019531 146.949219 137.167969 147.214844 137.824219 147.332031 C 138.667969 147.484375 139.519531 147.601562 140.375 147.695312 C 140.996094 147.761719 141.09375 147.695312 141.226562 147.082031 C 141.5 145.824219 141.746094 144.558594 141.976562 143.292969 C 142.066406 142.804688 142.015625 142.742188 141.496094 142.644531 C 140.816406 142.519531 140.128906 142.429688 139.4375 142.328125 Z M 119.652344 140.125 C 119.410156 140.046875 119.257812 139.976562 119.097656 139.953125 C 118.132812 139.789062 117.164062 139.621094 116.195312 139.480469 C 115.8125 139.425781 115.722656 139.492188 115.683594 139.902344 C 115.542969 141.308594 115.425781 142.714844 115.304688 144.121094 C 115.296875 144.195312 115.335938 144.273438 115.359375 144.375 C 115.617188 144.457031 115.863281 144.554688 116.121094 144.609375 C 116.761719 144.742188 117.40625 144.863281 118.050781 144.976562 C 118.707031 145.085938 118.855469 144.996094 118.988281 144.351562 C 119.164062 143.488281 119.320312 142.625 119.460938 141.753906 C 119.550781 141.230469 119.585938 140.703125 119.652344 140.125 Z M 138.25 155.550781 C 138.542969 155.550781 138.832031 155.5625 139.113281 155.546875 C 139.574219 155.53125 139.691406 155.441406 139.796875 154.996094 C 139.917969 154.480469 140.03125 153.957031 140.125 153.4375 C 140.269531 152.609375 140.417969 151.785156 140.523438 150.953125 C 140.585938 150.476562 140.484375 150.382812 140.007812 150.308594 C 139.785156 150.273438 139.5625 150.230469 139.339844 150.210938 C 138.503906 150.148438 137.667969 150.09375 136.835938 150.035156 C 136.542969 150.011719 136.375 150.136719 136.332031 150.4375 C 136.292969 150.722656 136.210938 151 136.179688 151.28125 C 136.066406 152.296875 135.9375 153.3125 135.871094 154.335938 C 135.828125 155.050781 135.976562 155.1875 136.675781 155.308594 C 137.199219 155.398438 137.726562 155.472656 138.25 155.550781 Z M 114.753906 146.925781 C 114.492188 148.363281 114.238281 149.6875 114.007812 151.015625 C 113.933594 151.453125 114.019531 151.542969 114.460938 151.644531 C 115.375 151.851562 116.292969 152.058594 117.207031 152.261719 C 117.753906 152.386719 117.902344 152.304688 117.992188 151.742188 C 118.191406 150.53125 118.371094 149.316406 118.535156 148.101562 C 118.609375 147.558594 118.539062 147.460938 117.984375 147.355469 C 117.125 147.1875 116.257812 147.058594 115.390625 146.925781 C 115.195312 146.898438 114.996094 146.925781 114.753906 146.925781 Z M 135.085938 147.191406 C 135.269531 146.304688 135.441406 145.480469 135.605469 144.660156 C 135.738281 143.996094 135.859375 143.335938 135.984375 142.671875 C 136.023438 142.460938 136.042969 142.230469 135.765625 142.1875 C 134.777344 142.03125 133.789062 141.867188 132.792969 141.753906 C 132.390625 141.710938 132.292969 141.824219 132.21875 142.230469 C 131.992188 143.5 131.765625 144.765625 131.570312 146.042969 C 131.472656 146.671875 131.621094 146.859375 132.253906 146.953125 C 133.042969 147.066406 133.835938 147.144531 134.628906 147.230469 C 134.765625 147.242188 134.90625 147.207031 135.085938 147.191406 Z M 111.089844 138.625 C 111.085938 138.648438 111.082031 138.671875 111.078125 138.691406 C 110.894531 138.671875 110.714844 138.648438 110.53125 138.632812 C 110.050781 138.59375 110.003906 138.609375 109.894531 139.078125 C 109.761719 139.65625 109.660156 140.242188 109.5625 140.828125 C 109.46875 141.371094 109.386719 141.917969 109.332031 142.46875 C 109.269531 143.074219 109.394531 143.230469 110 143.316406 C 110.808594 143.433594 111.621094 143.535156 112.4375 143.621094 C 113.222656 143.703125 113.273438 143.664062 113.414062 142.90625 C 113.625 141.777344 113.804688 140.648438 114.015625 139.523438 C 114.070312 139.222656 113.964844 139.113281 113.6875 139.070312 C 112.816406 138.929688 111.953125 138.773438 111.089844 138.625 Z M 130.859375 141.386719 C 130.425781 141.347656 130.105469 141.316406 129.78125 141.289062 C 129.128906 141.230469 128.476562 141.160156 127.820312 141.113281 C 127.273438 141.074219 126.992188 141.226562 126.917969 141.632812 C 126.683594 142.941406 126.457031 144.253906 126.25 145.570312 C 126.164062 146.101562 126.25 146.203125 126.785156 146.332031 C 127.625 146.539062 128.480469 146.617188 129.34375 146.585938 C 129.890625 146.566406 129.9375 146.5625 130.042969 146.027344 C 130.238281 145.0625 130.410156 144.097656 130.582031 143.128906 C 130.679688 142.585938 130.753906 142.042969 130.859375 141.386719 Z M 123.453125 155.785156 C 123.417969 154.867188 123.339844 154.789062 122.40625 154.734375 C 121.835938 154.699219 121.265625 154.644531 120.691406 154.597656 C 119.953125 154.539062 119.757812 154.648438 119.640625 155.375 C 119.472656 156.40625 119.351562 157.445312 119.238281 158.484375 C 119.183594 159 119.308594 159.167969 119.804688 159.242188 C 120.574219 159.359375 121.351562 159.449219 122.125 159.507812 C 122.667969 159.546875 122.8125 159.410156 122.921875 158.871094 C 123.078125 158.109375 123.222656 157.34375 123.359375 156.578125 C 123.40625 156.316406 123.421875 156.050781 123.453125 155.785156 Z M 109.121094 146.09375 C 109.046875 146.183594 109.007812 146.214844 109 146.25 C 108.773438 147.511719 108.527344 148.777344 108.335938 150.046875 C 108.265625 150.472656 108.425781 150.710938 108.875 150.8125 C 109.75 151.007812 110.640625 151.132812 111.527344 151.265625 C 111.84375 151.316406 112.03125 151.125 112.089844 150.824219 C 112.332031 149.621094 112.570312 148.417969 112.808594 147.214844 C 112.875 146.902344 112.757812 146.699219 112.441406 146.621094 C 112.007812 146.515625 111.578125 146.371094 111.136719 146.308594 C 110.457031 146.207031 109.765625 146.160156 109.121094 146.09375 Z M 102.964844 145.128906 C 102.925781 145.203125 102.882812 145.25 102.867188 145.304688 C 102.5 146.585938 102.308594 147.898438 102.199219 149.226562 C 102.175781 149.5 102.304688 149.65625 102.570312 149.699219 C 103.535156 149.871094 104.496094 150.050781 105.464844 150.191406 C 105.863281 150.25 105.964844 150.15625 106.070312 149.75 C 106.199219 149.277344 106.289062 148.792969 106.390625 148.3125 C 106.546875 147.53125 106.710938 146.75 106.851562 145.964844 C 106.925781 145.539062 106.859375 145.46875 106.433594 145.390625 C 106.191406 145.347656 105.945312 145.320312 105.703125 145.289062 C 104.792969 145.175781 103.882812 145.0625 102.964844 145.128906 Z M 105.539062 153.148438 C 104.285156 152.890625 103.050781 152.742188 101.804688 152.722656 C 101.507812 152.71875 101.4375 152.917969 101.398438 153.15625 C 101.222656 154.183594 101.03125 155.207031 100.871094 156.238281 C 100.769531 156.902344 100.914062 157.070312 101.597656 157.164062 C 102.308594 157.257812 103.015625 157.34375 103.726562 157.429688 C 104.429688 157.511719 104.609375 157.433594 104.804688 156.746094 C 105.09375 155.726562 105.324219 154.691406 105.566406 153.65625 C 105.597656 153.507812 105.546875 153.34375 105.539062 153.148438 Z M 131.953125 133.957031 C 131.21875 133.816406 130.566406 133.671875 129.902344 133.574219 C 129.539062 133.519531 129.164062 133.515625 128.800781 133.535156 C 128.3125 133.558594 128.199219 133.679688 128.121094 134.160156 C 128.054688 134.5625 128 134.96875 127.929688 135.375 C 127.800781 136.121094 127.640625 136.863281 127.53125 137.613281 C 127.386719 138.625 127.515625 138.535156 128.324219 138.683594 C 128.964844 138.804688 129.628906 138.8125 130.28125 138.867188 C 130.929688 138.921875 131.035156 138.851562 131.179688 138.238281 C 131.382812 137.378906 131.589844 136.523438 131.757812 135.65625 C 131.859375 135.125 131.886719 134.574219 131.953125 133.957031 Z M 134.335938 150.582031 C 134.351562 149.78125 134.308594 149.679688 133.726562 149.589844 C 133 149.476562 132.265625 149.394531 131.53125 149.332031 C 130.96875 149.285156 130.917969 149.335938 130.785156 149.910156 C 130.679688 150.367188 130.589844 150.835938 130.519531 151.296875 C 130.394531 152.085938 130.261719 152.875 130.175781 153.667969 C 130.078125 154.546875 130.3125 154.835938 131.164062 154.960938 C 131.753906 155.042969 132.34375 155.113281 132.933594 155.167969 C 133.519531 155.222656 133.675781 155.109375 133.765625 154.535156 C 133.964844 153.21875 134.144531 151.898438 134.335938 150.582031 Z M 107.234375 157.109375 C 107.21875 157.859375 107.226562 157.882812 107.984375 158.039062 C 108.625 158.171875 109.261719 158.320312 109.910156 158.398438 C 110.742188 158.496094 110.871094 158.394531 111.035156 157.574219 C 111.226562 156.613281 111.378906 155.644531 111.542969 154.675781 C 111.621094 154.21875 111.574219 154.152344 111.140625 154.003906 C 111.003906 153.957031 110.867188 153.914062 110.726562 153.890625 C 109.957031 153.78125 109.1875 153.675781 108.417969 153.578125 C 108 153.523438 107.894531 153.578125 107.816406 153.980469 C 107.613281 155.019531 107.425781 156.066406 107.234375 157.109375 Z M 107.117188 142.777344 C 107.191406 142.605469 107.257812 142.496094 107.277344 142.382812 C 107.464844 141.148438 107.65625 139.914062 107.824219 138.675781 C 107.875 138.269531 107.792969 138.179688 107.359375 138.125 C 106.382812 138 105.40625 137.898438 104.433594 137.777344 C 104.136719 137.742188 103.941406 137.839844 103.890625 138.136719 C 103.683594 139.304688 103.46875 140.472656 103.285156 141.644531 C 103.203125 142.160156 103.308594 142.292969 103.847656 142.402344 C 104.367188 142.503906 104.898438 142.5625 105.425781 142.625 C 105.984375 142.6875 106.550781 142.726562 107.117188 142.777344 Z M 127.769531 154.222656 C 128.480469 154.246094 128.519531 154.230469 128.652344 153.707031 C 128.757812 153.308594 128.839844 152.90625 128.898438 152.503906 C 129.03125 151.632812 129.160156 150.761719 129.269531 149.886719 C 129.335938 149.332031 129.195312 149.039062 128.777344 148.976562 C 127.992188 148.855469 127.195312 148.789062 126.402344 148.707031 C 126.117188 148.675781 125.949219 148.78125 125.902344 149.097656 C 125.6875 150.511719 125.445312 151.925781 125.226562 153.339844 C 125.15625 153.78125 125.246094 153.90625 125.671875 153.964844 C 126.425781 154.070312 127.175781 154.152344 127.769531 154.222656 Z M 129.878906 156.011719 C 129.609375 157.292969 129.34375 158.464844 129.121094 159.648438 C 129.015625 160.191406 129.1875 160.421875 129.722656 160.515625 C 130.523438 160.660156 131.332031 160.773438 132.144531 160.863281 C 132.652344 160.921875 132.734375 160.855469 132.824219 160.3125 C 133 159.285156 133.15625 158.253906 133.28125 157.222656 C 133.371094 156.519531 133.296875 156.402344 132.570312 156.296875 C 131.710938 156.164062 130.832031 156.109375 129.878906 156.011719 Z M 144.78125 130.109375 C 144.734375 129.523438 144.601562 129.300781 144.152344 129.242188 C 142.875 129.082031 141.597656 128.9375 140.316406 128.796875 C 139.933594 128.757812 139.796875 128.867188 139.722656 129.253906 C 139.632812 129.738281 139.566406 130.222656 139.511719 130.710938 C 139.464844 131.160156 139.574219 131.328125 140.003906 131.414062 C 141.125 131.636719 142.25 131.847656 143.378906 132.039062 C 143.886719 132.125 144.203125 131.953125 144.394531 131.460938 C 144.5625 131.023438 144.65625 130.5625 144.78125 130.109375 Z M 135.488281 156.933594 C 135.292969 158.335938 134.996094 159.6875 134.890625 161.042969 C 135.019531 161.105469 135.070312 161.15625 135.125 161.160156 C 136.125 161.230469 137.125 161.304688 138.125 161.351562 C 138.421875 161.367188 138.542969 161.148438 138.589844 160.871094 C 138.761719 159.886719 138.941406 158.898438 139.113281 157.90625 C 139.222656 157.273438 139.132812 157.152344 138.476562 157.085938 C 137.824219 157.019531 137.167969 156.972656 136.515625 156.933594 C 136.199219 156.917969 135.871094 156.933594 135.488281 156.933594 Z M 121.84375 129.214844 C 122.140625 128.714844 122.183594 128.1875 122.222656 127.660156 C 122.273438 126.941406 122.125 126.75 121.398438 126.660156 C 120.246094 126.527344 119.085938 126.414062 117.929688 126.292969 C 117.597656 126.257812 117.277344 126.34375 117.175781 126.679688 C 117.050781 127.105469 116.976562 127.550781 116.9375 127.996094 C 116.917969 128.273438 117.066406 128.46875 117.40625 128.519531 C 118.878906 128.734375 120.347656 128.980469 121.84375 129.214844 Z M 106.992188 160.398438 C 106.890625 161.183594 106.789062 161.894531 106.707031 162.601562 C 106.644531 163.132812 106.589844 163.660156 106.574219 164.195312 C 106.5625 164.710938 106.597656 164.753906 107.101562 164.835938 C 107.730469 164.941406 108.359375 165.019531 108.992188 165.089844 C 109.59375 165.15625 109.714844 165.078125 109.824219 164.476562 C 110.011719 163.410156 110.179688 162.332031 110.34375 161.261719 C 110.402344 160.902344 110.300781 160.726562 109.914062 160.648438 C 108.972656 160.453125 108.019531 160.355469 106.992188 160.398438 Z M 113.890625 154.304688 C 113.820312 154.457031 113.765625 154.53125 113.753906 154.605469 C 113.59375 155.722656 113.4375 156.835938 113.28125 157.949219 C 113.238281 158.261719 113.410156 158.417969 113.675781 158.46875 C 114.519531 158.621094 115.367188 158.761719 116.214844 158.894531 C 116.523438 158.945312 116.652344 158.765625 116.695312 158.476562 C 116.796875 157.746094 116.921875 157.019531 117.03125 156.289062 C 117.089844 155.90625 117.144531 155.519531 117.183594 155.132812 C 117.21875 154.839844 117.074219 154.648438 116.785156 154.617188 C 115.820312 154.503906 114.847656 154.40625 113.890625 154.304688 Z M 100.828125 159.644531 C 100.402344 160.296875 100.03125 163.027344 100.253906 163.988281 C 101.078125 164.054688 101.929688 164.136719 102.785156 164.179688 C 103.289062 164.203125 103.402344 164.085938 103.519531 163.558594 C 103.636719 163.039062 103.742188 162.519531 103.839844 162 C 103.925781 161.539062 104.007812 161.074219 104.070312 160.609375 C 104.121094 160.199219 104.039062 160.0625 103.65625 160.003906 C 102.707031 159.867188 101.757812 159.761719 100.828125 159.644531 Z M 127.6875 159.789062 C 127.890625 158.703125 128.097656 157.621094 128.296875 156.539062 C 128.394531 155.988281 128.34375 155.886719 127.796875 155.773438 C 127.234375 155.65625 126.671875 155.558594 126.105469 155.492188 C 124.996094 155.363281 125.082031 155.203125 124.839844 156.378906 C 124.664062 157.238281 124.507812 158.105469 124.371094 158.972656 C 124.296875 159.449219 124.378906 159.550781 124.851562 159.640625 C 125.332031 159.738281 125.820312 159.828125 126.304688 159.859375 C 126.738281 159.894531 127.191406 160.09375 127.6875 159.789062 Z M 113.988281 161.320312 C 113.988281 161.335938 113.984375 161.351562 113.980469 161.367188 C 113.921875 161.363281 113.859375 161.363281 113.796875 161.359375 C 112.972656 161.324219 112.976562 161.324219 112.847656 162.160156 C 112.710938 163.046875 112.5625 163.933594 112.421875 164.820312 C 112.339844 165.324219 112.382812 165.449219 112.902344 165.542969 C 113.582031 165.664062 114.277344 165.710938 114.964844 165.777344 C 115.308594 165.804688 115.484375 165.613281 115.542969 165.277344 C 115.730469 164.214844 115.910156 163.148438 116.109375 162.085938 C 116.167969 161.761719 116.035156 161.628906 115.742188 161.585938 C 115.15625 161.496094 114.574219 161.40625 113.988281 161.320312 Z M 124.015625 127.054688 C 123.71875 127 123.53125 127.121094 123.460938 127.445312 C 123.363281 127.886719 123.234375 128.316406 123.140625 128.757812 C 123.058594 129.152344 123.132812 129.273438 123.527344 129.363281 C 124.105469 129.492188 124.6875 129.609375 125.269531 129.710938 C 125.8125 129.804688 126.359375 129.898438 126.90625 129.953125 C 127.425781 130.007812 127.625 129.859375 127.746094 129.367188 C 127.84375 128.96875 127.933594 128.566406 127.976562 128.164062 C 128.035156 127.652344 127.964844 127.558594 127.4375 127.484375 C 126.308594 127.324219 125.167969 127.199219 124.015625 127.054688 Z M 137.296875 131.164062 C 137.300781 131.132812 137.308594 131.105469 137.3125 131.074219 C 137.4375 131.074219 137.558594 131.078125 137.679688 131.074219 C 138.191406 131.0625 138.347656 130.96875 138.46875 130.492188 C 138.566406 130.097656 138.636719 129.691406 138.667969 129.285156 C 138.707031 128.804688 138.546875 128.621094 138.066406 128.535156 C 137.808594 128.492188 137.542969 128.46875 137.28125 128.433594 C 136.492188 128.332031 135.699219 128.230469 134.914062 128.128906 C 134.59375 128.082031 134.410156 128.203125 134.363281 128.535156 C 134.3125 128.960938 134.214844 129.382812 134.175781 129.808594 C 134.132812 130.265625 134.300781 130.53125 134.730469 130.628906 C 135.582031 130.828125 136.441406 130.992188 137.296875 131.164062 Z M 110.601562 127.410156 C 110.714844 126.832031 110.832031 126.316406 110.914062 125.792969 C 110.960938 125.515625 110.84375 125.304688 110.546875 125.253906 C 109.441406 125.058594 108.332031 124.867188 107.222656 124.679688 C 106.960938 124.632812 106.769531 124.746094 106.691406 124.988281 C 106.5625 125.398438 106.425781 125.808594 106.359375 126.230469 C 106.289062 126.6875 106.449219 126.921875 106.914062 127.050781 C 108.089844 127.378906 109.292969 127.4375 110.601562 127.410156 Z M 128.800781 129.90625 C 130 130.066406 131.070312 130.210938 132.144531 130.351562 C 132.242188 130.363281 132.347656 130.34375 132.449219 130.34375 C 132.78125 130.339844 133.007812 130.183594 133.066406 129.855469 C 133.148438 129.371094 133.21875 128.882812 133.265625 128.394531 C 133.296875 128.074219 133.105469 127.902344 132.789062 127.875 C 131.726562 127.792969 130.664062 127.710938 129.601562 127.625 C 129.304688 127.601562 129.121094 127.71875 129.074219 128.011719 C 128.980469 128.617188 128.898438 129.222656 128.800781 129.90625 Z M 113.199219 125.808594 C 111.679688 125.769531 111.566406 125.867188 111.40625 127.050781 C 111.402344 127.070312 111.398438 127.089844 111.398438 127.113281 C 111.355469 127.527344 111.429688 127.683594 111.859375 127.757812 C 112.84375 127.925781 113.839844 128.070312 114.832031 128.1875 C 115.230469 128.230469 115.386719 128.089844 115.507812 127.707031 C 115.597656 127.429688 115.660156 127.152344 115.722656 126.871094 C 115.851562 126.265625 115.738281 126.066406 115.136719 125.988281 C 114.382812 125.894531 113.625 125.847656 113.199219 125.808594 Z M 113.199219 125.808594 " fill-opacity="1" fill-rule="nonzero"/><path fill="#627843" d="M 160.792969 167.667969 C 158.261719 169.953125 155.730469 172.261719 153.175781 174.539062 C 150.816406 176.640625 148.378906 178.652344 145.832031 180.519531 C 144.863281 181.230469 143.847656 181.882812 142.851562 182.5625 C 142.8125 182.535156 142.769531 182.503906 142.726562 182.476562 C 143.230469 179.195312 143.734375 175.914062 144.246094 172.589844 C 146.980469 173.007812 149.683594 173.535156 152.4375 173.605469 C 152.449219 173.558594 152.460938 173.511719 152.472656 173.464844 C 152.386719 173.414062 152.304688 173.328125 152.210938 173.3125 C 150.992188 173.140625 149.773438 172.984375 148.554688 172.820312 C 147.257812 172.644531 145.957031 172.472656 144.660156 172.292969 C 144.542969 172.277344 144.433594 172.21875 144.277344 172.164062 C 144.566406 170.003906 144.847656 167.855469 145.144531 165.65625 C 147.605469 165.941406 150.015625 166.242188 152.433594 166.492188 C 154.832031 166.738281 157.222656 167.074219 159.632812 167.179688 C 159.644531 167.132812 159.65625 167.089844 159.667969 167.050781 C 159.578125 167 159.492188 166.917969 159.398438 166.910156 C 157.972656 166.742188 156.546875 166.585938 155.121094 166.421875 C 153.085938 166.191406 151.050781 165.960938 149.015625 165.730469 C 147.773438 165.589844 146.53125 165.449219 145.242188 165.300781 C 145.242188 165.144531 145.226562 165.007812 145.246094 164.875 C 145.671875 161.746094 146.117188 158.625 146.527344 155.496094 C 146.894531 152.730469 147.226562 149.960938 147.570312 147.195312 C 147.835938 145.019531 148.105469 142.839844 148.347656 140.664062 C 148.554688 138.808594 148.726562 136.949219 148.910156 135.09375 C 149.140625 132.769531 149.367188 130.441406 149.601562 128.117188 C 149.820312 125.894531 150.039062 123.667969 150.273438 121.445312 C 150.363281 120.589844 150.503906 119.746094 150.621094 118.890625 C 150.667969 118.882812 150.710938 118.878906 150.757812 118.871094 C 150.84375 119.121094 150.945312 119.363281 151.011719 119.621094 C 151.597656 121.902344 152.183594 124.183594 152.75 126.46875 C 154.691406 134.285156 156.300781 142.179688 157.746094 150.101562 C 158.5625 154.554688 159.261719 159.03125 160.019531 163.496094 C 160.253906 164.863281 160.523438 166.230469 160.792969 167.667969 Z M 149.570312 118.699219 C 149.171875 121.378906 148.777344 124.050781 148.378906 126.726562 C 147.867188 130.195312 147.332031 133.65625 146.835938 137.125 C 146.308594 140.777344 145.796875 144.433594 145.3125 148.089844 C 144.855469 151.5625 144.410156 155.042969 144.015625 158.523438 C 143.632812 161.863281 143.316406 165.210938 142.976562 168.558594 C 142.609375 172.207031 142.25 175.859375 141.875 179.511719 C 141.8125 180.140625 141.699219 180.769531 141.566406 181.390625 C 141.433594 182.023438 141.191406 182.277344 140.472656 182.082031 C 140.394531 182.0625 140.3125 182.058594 140.230469 182.050781 C 137.023438 181.765625 133.816406 181.515625 130.617188 181.183594 C 127.804688 180.890625 124.996094 180.554688 122.199219 180.152344 C 118.996094 179.6875 115.804688 179.140625 112.613281 178.601562 C 108.816406 177.964844 105.050781 177.175781 101.304688 176.28125 C 100.332031 176.046875 99.367188 175.789062 98.398438 175.546875 C 98.3125 176.1875 98.355469 176.257812 98.898438 176.386719 C 100.410156 176.746094 101.925781 177.117188 103.4375 177.476562 C 109.5 178.914062 115.632812 179.96875 121.804688 180.804688 C 124.789062 181.207031 127.785156 181.519531 130.78125 181.828125 C 134.121094 182.175781 137.472656 182.472656 140.820312 182.792969 C 141.222656 182.832031 141.625 182.878906 142.042969 182.925781 C 142.148438 182.28125 142.253906 181.679688 142.34375 181.074219 C 142.941406 177.082031 143.539062 173.089844 144.121094 169.09375 C 144.488281 166.558594 144.824219 164.019531 145.167969 161.480469 C 145.515625 158.921875 145.875 156.367188 146.207031 153.804688 C 146.566406 151.042969 146.910156 148.277344 147.238281 145.507812 C 147.566406 142.738281 147.878906 139.96875 148.175781 137.195312 C 148.414062 134.953125 148.617188 132.707031 148.84375 130.464844 C 149.074219 128.15625 149.304688 125.851562 149.550781 123.550781 C 149.742188 121.761719 149.84375 119.960938 150.378906 118.179688 C 150.144531 118.121094 149.9375 118.0625 149.691406 117.996094 C 149.644531 118.261719 149.601562 118.480469 149.570312 118.699219 Z M 136.515625 171.40625 C 131.386719 170.320312 126.210938 169.480469 121.019531 168.773438 C 117.265625 168.257812 113.503906 167.8125 109.742188 167.371094 C 106.8125 167.03125 103.875 166.738281 100.941406 166.429688 C 100.324219 166.363281 100.242188 166.4375 100.175781 167.074219 C 100.054688 168.277344 99.933594 169.476562 99.824219 170.683594 C 99.765625 171.332031 99.730469 171.984375 99.675781 172.683594 C 99.972656 172.773438 100.234375 172.882812 100.507812 172.941406 C 102.074219 173.257812 103.636719 173.585938 105.207031 173.867188 C 108.371094 174.433594 111.535156 174.988281 114.703125 175.53125 C 117.570312 176.019531 120.433594 176.496094 123.304688 176.957031 C 125.613281 177.324219 127.917969 177.683594 130.230469 177.992188 C 131.996094 178.230469 133.773438 178.398438 135.542969 178.566406 C 136.335938 178.644531 137.132812 178.695312 137.917969 178.566406 C 138.242188 177.246094 138.871094 172.433594 138.808594 171.804688 C 138.042969 171.667969 137.273438 171.5625 136.515625 171.40625 Z M 108.410156 116.925781 C 108.097656 118.730469 107.460938 120.429688 107.335938 122.28125 C 107.675781 122.355469 107.96875 122.441406 108.265625 122.476562 C 109.550781 122.617188 110.835938 122.746094 112.117188 122.871094 C 114.914062 123.148438 117.707031 123.40625 120.5 123.691406 C 122.867188 123.9375 125.230469 124.195312 127.589844 124.476562 C 129.988281 124.765625 132.382812 125.09375 134.78125 125.417969 C 137.355469 125.769531 139.933594 126.136719 142.507812 126.496094 C 143.199219 126.59375 143.882812 126.710938 144.578125 126.785156 C 145.078125 126.835938 145.234375 126.714844 145.414062 126.25 C 145.472656 126.09375 145.53125 125.941406 145.554688 125.777344 C 145.789062 124.382812 146.019531 122.992188 146.242188 121.59375 C 146.265625 121.460938 146.246094 121.320312 146.246094 121.207031 C 133.734375 118.691406 121.15625 117.261719 108.410156 116.925781 Z M 108.410156 116.925781 " fill-opacity="1" fill-rule="nonzero"/><path fill="#749e66" d="M 142.042969 139.976562 C 140.945312 139.8125 139.945312 139.660156 138.957031 139.511719 C 138.855469 138.832031 139.273438 136.019531 139.609375 135.117188 C 140.621094 135.230469 141.648438 135.347656 142.753906 135.46875 C 142.644531 137.003906 142.25 138.441406 142.042969 139.976562 Z M 134.46875 134.652344 C 133.933594 134.632812 133.894531 134.679688 133.792969 135.21875 C 133.644531 136.023438 133.515625 136.828125 133.386719 137.636719 C 133.332031 137.980469 133.296875 138.324219 133.273438 138.667969 C 133.253906 138.898438 133.355469 139.070312 133.613281 139.085938 C 134.441406 139.136719 135.273438 139.179688 136.167969 139.230469 C 136.46875 137.738281 136.753906 136.308594 137.058594 134.796875 C 136.132812 134.746094 135.300781 134.679688 134.46875 134.652344 Z M 120.484375 152.652344 C 121.472656 152.765625 122.402344 152.867188 123.386719 152.980469 C 123.695312 151.644531 124.078125 150.363281 124.289062 148.996094 C 123.238281 148.878906 122.25 148.773438 121.195312 148.65625 C 120.835938 150 120.648438 151.300781 120.484375 152.652344 Z M 121.480469 145.042969 C 121.449219 145.332031 121.554688 145.53125 121.859375 145.570312 C 122.746094 145.671875 123.640625 145.765625 124.558594 145.863281 C 124.976562 144.332031 125.316406 142.847656 125.394531 141.296875 C 124.28125 141.167969 123.222656 141.042969 122.113281 140.917969 C 121.769531 142.3125 121.605469 143.675781 121.480469 145.042969 Z M 125.59375 138.167969 C 126.128906 136.390625 126.445312 134.496094 126.324219 133.78125 C 125.308594 133.628906 124.285156 133.476562 123.179688 133.3125 C 122.894531 134.8125 122.617188 136.289062 122.34375 137.75 C 123.027344 138.019531 124.972656 138.257812 125.59375 138.167969 Z M 141.617188 143.113281 C 140.457031 142.839844 139.320312 142.675781 138.132812 142.808594 C 137.917969 144.066406 137.714844 145.277344 137.507812 146.488281 C 137.457031 146.777344 137.601562 146.917969 137.859375 146.957031 C 138.808594 147.082031 139.761719 147.195312 140.738281 147.320312 C 141.09375 145.917969 141.507812 144.570312 141.617188 143.113281 Z M 119.300781 140.320312 C 118.226562 140.152344 117.207031 139.992188 116.128906 139.824219 C 115.96875 141.296875 115.820312 142.691406 115.664062 144.128906 C 116.640625 144.289062 117.5625 144.441406 118.539062 144.597656 C 118.847656 143.179688 119.132812 141.792969 119.300781 140.320312 Z M 136.703125 150.402344 C 136.589844 151.230469 136.464844 152.015625 136.375 152.808594 C 136.3125 153.335938 136.265625 153.871094 136.257812 154.402344 C 136.25 154.855469 136.328125 154.941406 136.773438 154.976562 C 137.648438 155.042969 138.527344 155.078125 139.457031 155.132812 C 139.804688 153.679688 140 152.269531 140.179688 150.777344 C 138.984375 150.628906 137.890625 150.335938 136.703125 150.402344 Z M 117.617188 151.882812 C 117.816406 150.53125 118.007812 149.207031 118.207031 147.835938 C 117.125 147.644531 116.136719 147.359375 115.101562 147.300781 C 114.859375 148.644531 114.632812 149.910156 114.394531 151.226562 C 115.46875 151.445312 116.503906 151.65625 117.617188 151.882812 Z M 134.722656 146.773438 C 135.003906 145.367188 135.386719 144.03125 135.5625 142.601562 C 134.539062 142.429688 133.59375 142.097656 132.554688 142.148438 C 132.332031 143.609375 132.113281 145.019531 131.886719 146.484375 C 132.863281 146.675781 133.78125 146.742188 134.722656 146.773438 Z M 113.578125 139.386719 C 112.476562 139.25 111.410156 139.121094 110.296875 138.980469 C 110.070312 140.304688 109.808594 141.578125 109.730469 142.945312 C 110.8125 143.054688 111.84375 143.15625 112.925781 143.269531 C 113.148438 141.945312 113.355469 140.703125 113.578125 139.386719 Z M 130.359375 141.710938 C 129.28125 141.617188 128.28125 141.433594 127.242188 141.539062 C 126.996094 143 126.761719 144.410156 126.527344 145.804688 C 127.035156 146.027344 128.773438 146.230469 129.628906 146.171875 C 129.832031 144.699219 130.246094 143.25 130.359375 141.710938 Z M 119.628906 158.773438 C 120.621094 158.867188 121.53125 158.953125 122.488281 159.046875 C 122.660156 157.777344 123.136719 156.625 123.074219 155.332031 C 122.105469 155.214844 121.179688 155.105469 120.167969 154.980469 C 119.828125 156.25 119.710938 157.488281 119.628906 158.773438 Z M 111.648438 150.839844 C 111.917969 149.578125 112.183594 148.304688 112.464844 146.949219 C 111.382812 146.792969 110.367188 146.648438 109.296875 146.492188 C 109.070312 147.792969 108.855469 149.035156 108.636719 150.285156 C 109.285156 150.605469 110.632812 150.839844 111.648438 150.839844 Z M 102.613281 149.363281 C 103.628906 149.496094 104.644531 149.632812 105.679688 149.765625 C 105.957031 148.417969 106.222656 147.125 106.5 145.773438 C 105.375 145.636719 104.324219 145.511719 103.25 145.382812 C 102.925781 146.457031 102.578125 148.65625 102.613281 149.363281 Z M 104.363281 157.074219 C 104.632812 155.859375 104.890625 154.707031 105.15625 153.519531 C 104.003906 153.289062 102.925781 153.136719 101.777344 153.121094 C 101.574219 154.3125 101.375 155.457031 101.164062 156.707031 C 102.273438 156.835938 103.292969 156.953125 104.363281 157.074219 Z M 127.851562 138.316406 C 128.839844 138.394531 129.742188 138.46875 130.679688 138.542969 C 130.996094 137.117188 131.441406 135.757812 131.570312 134.292969 C 130.558594 134.132812 129.617188 133.875 128.527344 133.914062 C 128.335938 135.398438 128.023438 136.808594 127.851562 138.316406 Z M 131.191406 149.671875 C 131.136719 149.816406 131.089844 149.910156 131.070312 150.003906 C 130.902344 151.035156 130.730469 152.066406 130.578125 153.097656 C 130.527344 153.441406 130.511719 153.792969 130.515625 154.136719 C 130.519531 154.382812 130.640625 154.558594 130.925781 154.582031 C 131.730469 154.648438 132.539062 154.726562 133.386719 154.800781 C 133.601562 153.230469 133.8125 151.695312 134.03125 150.09375 C 133.003906 149.9375 132.101562 149.804688 131.191406 149.671875 Z M 107.589844 157.621094 C 108.59375 157.773438 109.511719 157.910156 110.515625 158.058594 C 110.800781 156.835938 110.992188 155.628906 111.15625 154.402344 C 110.152344 154.246094 109.230469 154.105469 108.222656 153.953125 C 108.003906 155.21875 107.800781 156.398438 107.589844 157.621094 Z M 104.292969 138.128906 C 104.074219 139.449219 103.722656 140.703125 103.605469 142.042969 C 104.738281 142.148438 105.808594 142.246094 106.925781 142.347656 C 107.117188 141.070312 107.308594 139.828125 107.503906 138.515625 C 106.375 138.378906 105.351562 138.253906 104.292969 138.128906 Z M 125.535156 153.519531 C 126.464844 153.632812 127.347656 153.742188 128.222656 153.847656 C 128.578125 152.871094 129.019531 149.921875 128.882812 149.414062 C 128.046875 149.304688 127.199219 149.191406 126.277344 149.070312 C 125.957031 150.566406 125.609375 151.988281 125.535156 153.519531 Z M 130.171875 156.410156 C 129.929688 157.667969 129.691406 158.859375 129.445312 160.125 C 130.457031 160.253906 131.414062 160.375 132.417969 160.5 C 132.597656 159.230469 132.769531 158.023438 132.949219 156.765625 C 131.992188 156.5625 131.09375 156.457031 130.171875 156.410156 Z M 138.832031 157.539062 C 137.808594 157.4375 136.839844 157.347656 135.828125 157.25 C 135.632812 158.488281 135.449219 159.648438 135.261719 160.851562 C 136.269531 160.90625 137.226562 160.960938 138.246094 161.015625 C 138.441406 159.824219 138.628906 158.722656 138.832031 157.539062 Z M 107.316406 160.710938 C 107.183594 161.996094 106.933594 163.191406 106.917969 164.441406 C 107.769531 164.566406 108.566406 164.722656 109.386719 164.6875 C 109.585938 163.453125 109.78125 162.285156 109.988281 161.007812 C 109.050781 160.902344 108.207031 160.808594 107.316406 160.710938 Z M 116.851562 155.039062 C 115.886719 154.914062 115.003906 154.800781 114.054688 154.679688 C 113.902344 155.855469 113.757812 156.976562 113.609375 158.148438 C 114.5625 158.253906 115.425781 158.347656 116.347656 158.445312 C 116.519531 157.277344 116.683594 156.175781 116.851562 155.039062 Z M 100.515625 163.570312 C 101.46875 163.753906 102.570312 163.777344 103.195312 163.632812 C 103.386719 162.597656 103.578125 161.539062 103.777344 160.433594 C 102.804688 160.308594 101.917969 160.191406 100.953125 160.066406 C 100.730469 161.285156 100.53125 162.417969 100.515625 163.570312 Z M 128.035156 156.1875 C 127.101562 156.046875 126.246094 155.917969 125.359375 155.785156 C 125.132812 156.984375 124.84375 158.082031 124.757812 159.261719 C 125.632812 159.441406 126.46875 159.574219 127.386719 159.527344 C 127.601562 158.421875 127.816406 157.332031 128.035156 156.1875 Z M 115.824219 161.96875 C 114.929688 161.890625 114.128906 161.820312 113.253906 161.746094 C 113.078125 162.902344 112.914062 163.996094 112.734375 165.175781 C 113.574219 165.265625 114.335938 165.351562 115.1875 165.441406 C 115.410156 164.226562 115.613281 163.132812 115.824219 161.96875 Z M 115.824219 161.96875 " fill-opacity="1" fill-rule="nonzero"/><g clip-path="url(#982e6c1579)"><path fill="#e39c00" d="M 145.683594 116.011719 C 145.394531 115.96875 145.164062 115.96875 144.960938 115.894531 C 144.617188 115.765625 144.402344 115.921875 144.25 116.1875 C 143.976562 116.660156 143.878906 117.152344 144.242188 117.621094 C 144.476562 117.921875 144.378906 118.09375 144.082031 118.238281 C 143.375 117.839844 143.089844 117.222656 143.28125 116.511719 C 143.476562 115.792969 144.265625 115.167969 144.945312 115.191406 C 145.402344 115.207031 145.539062 115.347656 145.683594 116.011719 Z M 137.628906 116.523438 C 137.332031 116.164062 137.355469 115.765625 137.539062 115.371094 C 137.726562 114.980469 138.066406 114.894531 138.46875 114.941406 C 138.675781 114.964844 138.882812 114.964844 139.140625 114.976562 C 138.867188 114.472656 138.648438 114.335938 138.246094 114.363281 C 137.578125 114.402344 136.894531 115.003906 136.730469 115.699219 C 136.546875 116.480469 136.789062 116.972656 137.605469 117.410156 C 137.75 117.296875 137.90625 117.171875 138.097656 117.027344 C 137.847656 116.761719 137.730469 116.652344 137.628906 116.523438 Z M 113.875 114.898438 C 113.863281 114.789062 113.886719 114.65625 113.835938 114.574219 C 113.753906 114.433594 113.617188 114.332031 113.511719 114.207031 C 113.222656 113.871094 113.222656 113.5 113.410156 113.117188 C 113.582031 112.765625 113.898438 112.722656 114.246094 112.75 C 114.460938 112.769531 114.679688 112.753906 114.90625 112.753906 C 114.785156 112.050781 114.558594 111.871094 114.019531 112.003906 C 113.398438 112.15625 112.71875 113.023438 112.753906 113.664062 C 112.769531 113.878906 112.851562 114.121094 112.980469 114.28125 C 113.191406 114.542969 113.472656 114.75 113.722656 114.976562 C 113.773438 114.953125 113.824219 114.921875 113.875 114.898438 Z M 121.5 115.023438 C 121.203125 114.632812 121.117188 114.210938 121.289062 113.753906 C 121.449219 113.328125 121.664062 113.203125 122.132812 113.230469 C 122.324219 113.246094 122.511719 113.234375 122.730469 113.234375 C 122.535156 112.757812 122.410156 112.679688 121.980469 112.722656 C 121.351562 112.785156 120.699219 113.414062 120.613281 114.039062 C 120.523438 114.648438 120.902344 115.191406 121.65625 115.539062 C 121.808594 115.261719 121.601562 115.160156 121.5 115.023438 Z M 129.261719 115.589844 C 129.003906 115.230469 129.019531 114.738281 129.3125 114.335938 C 129.554688 114.003906 129.839844 113.765625 130.296875 113.972656 C 130.410156 114.019531 130.5625 113.980469 130.734375 113.980469 C 130.648438 113.605469 130.421875 113.460938 130.144531 113.519531 C 129.808594 113.589844 129.453125 113.683594 129.183594 113.875 C 128.3125 114.492188 128.394531 115.84375 129.304688 116.257812 C 129.402344 116.300781 129.535156 116.261719 129.800781 116.261719 C 129.554688 115.957031 129.398438 115.777344 129.261719 115.589844 Z M 144.226562 130.226562 C 144.304688 129.703125 144.210938 129.617188 143.695312 129.550781 C 143.226562 129.488281 142.761719 129.425781 142.292969 129.367188 C 141.585938 129.285156 140.878906 129.207031 140.105469 129.117188 C 140.035156 129.792969 139.972656 130.414062 139.90625 131.058594 C 141.25 131.296875 142.511719 131.542969 143.882812 131.601562 C 144.007812 131.125 144.15625 130.679688 144.226562 130.226562 Z M 118.171875 126.683594 C 117.792969 126.636719 117.601562 126.777344 117.5 127.144531 C 117.414062 127.453125 117.363281 127.773438 117.285156 128.144531 C 118.757812 128.351562 120.175781 128.558594 121.648438 128.765625 C 121.71875 128.21875 121.777344 127.738281 121.847656 127.179688 C 120.554688 127.003906 119.363281 126.835938 118.171875 126.683594 Z M 123.882812 127.386719 C 123.765625 127.949219 123.65625 128.460938 123.535156 129.03125 C 124.832031 129.203125 126.054688 129.484375 127.339844 129.542969 C 127.460938 128.984375 127.570312 128.46875 127.703125 127.871094 C 126.367188 127.703125 125.140625 127.546875 123.882812 127.386719 Z M 134.773438 128.5 C 134.707031 129.109375 134.511719 129.640625 134.679688 130.257812 C 135.410156 130.394531 136.144531 130.578125 136.894531 130.652344 C 138.09375 130.777344 138.097656 130.699219 138.246094 129.652344 C 138.273438 129.433594 138.300781 129.21875 138.332031 128.9375 C 137.109375 128.859375 135.96875 128.570312 134.773438 128.5 Z M 106.8125 126.371094 C 106.800781 126.601562 106.894531 126.761719 107.148438 126.789062 C 108.175781 126.90625 109.203125 127.027344 110.261719 127.148438 C 110.367188 126.601562 110.457031 126.128906 110.554688 125.621094 C 109.386719 125.425781 108.289062 125.25 107.191406 125.070312 C 106.90625 125.480469 106.832031 125.917969 106.8125 126.371094 Z M 129.234375 129.59375 C 130.285156 129.722656 131.289062 129.851562 132.296875 129.972656 C 132.546875 130.003906 132.675781 129.847656 132.710938 129.617188 C 132.773438 129.183594 132.828125 128.746094 132.894531 128.253906 C 131.722656 128.144531 130.636719 128.046875 129.46875 127.9375 C 129.382812 128.542969 129.3125 129.042969 129.234375 129.59375 Z M 115.105469 127.847656 C 115.226562 127.371094 115.335938 126.925781 115.464844 126.4375 C 115.242188 126.398438 115.085938 126.359375 114.929688 126.347656 C 114.359375 126.304688 113.785156 126.292969 113.214844 126.230469 C 111.949219 126.085938 112.027344 125.878906 111.753906 127.4375 C 112.882812 127.578125 113.964844 127.707031 115.105469 127.847656 Z M 115.105469 127.847656 " fill-opacity="1" fill-rule="nonzero"/></g><path fill="#59a8aa" d="M 11.621094 65.320312 L 11.621094 72.210938 L 9.84375 72.210938 L 9.84375 65.320312 C 9.84375 64.847656 10.230469 64.46875 10.699219 64.46875 L 10.761719 64.46875 C 11.234375 64.46875 11.621094 64.847656 11.621094 65.320312 Z M 11.621094 65.320312 " fill-opacity="1" fill-rule="nonzero"/><path fill="#59a8aa" d="M 19.683594 65.320312 L 19.683594 72.210938 L 17.910156 72.210938 L 17.910156 65.320312 C 17.910156 64.847656 18.292969 64.46875 18.761719 64.46875 L 18.824219 64.46875 C 19.300781 64.46875 19.683594 64.847656 19.683594 65.320312 Z M 19.683594 65.320312 " fill-opacity="1" fill-rule="nonzero"/><path fill="#59a8aa" d="M 22.488281 75.195312 L 22.488281 83.667969 C 22.488281 84.078125 22.4375 84.472656 22.332031 84.84375 C 21.8125 86.761719 20.0625 88.171875 17.984375 88.171875 L 11.546875 88.171875 C 9.058594 88.171875 7.039062 86.152344 7.039062 83.667969 L 7.039062 75.195312 Z M 22.488281 75.195312 " fill-opacity="1" fill-rule="nonzero"/><path fill="#e5d56d" d="M 7.039062 72.210938 L 22.488281 72.210938 L 22.488281 75.195312 L 7.039062 75.195312 Z M 7.039062 72.210938 " fill-opacity="1" fill-rule="nonzero"/><path fill="#e5d56d" d="M 17.820312 88.171875 L 17.820312 90.195312 C 17.820312 90.601562 17.488281 90.9375 17.074219 90.9375 L 12.453125 90.9375 C 12.042969 90.9375 11.710938 90.601562 11.710938 90.195312 L 11.710938 88.171875 Z M 17.820312 88.171875 " fill-opacity="1" fill-rule="nonzero"/><path fill="#a7d276" d="M 29.296875 105.007812 L 27.953125 108.777344 C 15.828125 106.410156 13.136719 97.375 12.824219 90.9375 L 16.773438 90.9375 C 17.195312 98.941406 21.398438 103.65625 29.296875 105.007812 Z M 29.296875 105.007812 " fill-opacity="1" fill-rule="nonzero"/><g clip-path="url(#9f548c1824)"><path fill="#a7d276" d="M 66.058594 68.589844 L 66.058594 72.535156 C 60.597656 72.535156 58.871094 73.761719 57.851562 75.742188 C 57.214844 76.992188 56.910156 79.789062 56.589844 82.75 C 56.183594 86.566406 55.671875 91.308594 54.210938 95.9375 C 51.636719 104.089844 43.894531 109.355469 34.480469 109.355469 C 32.328125 109.355469 30.382812 109.195312 28.625 108.898438 L 28.621094 108.898438 L 28.621094 108.894531 L 31.507812 105.289062 C 32.457031 105.375 33.445312 105.410156 34.480469 105.410156 C 42.136719 105.410156 48.40625 101.230469 50.453125 94.746094 C 51.792969 90.496094 52.277344 85.972656 52.667969 82.335938 C 53.058594 78.707031 53.371094 75.839844 54.34375 73.941406 C 56.273438 70.191406 59.773438 68.589844 66.058594 68.589844 Z M 66.058594 68.589844 " fill-opacity="1" fill-rule="nonzero"/></g><g clip-path="url(#7d902fd9d7)"><path fill="#ffc05a" d="M 49.785156 82.441406 L 31.507812 105.289062 L 28.621094 108.894531 L 28.621094 108.898438 L 27.34375 110.496094 L 27.953125 108.777344 L 28.339844 107.695312 C 28.339844 107.691406 28.339844 107.691406 28.34375 107.6875 L 29.296875 105.007812 L 35.65625 87.101562 L 25.621094 84.25 L 27.371094 80.863281 L 39.804688 56.804688 L 36.578125 77.6875 Z M 49.785156 82.441406 " fill-opacity="1" fill-rule="nonzero"/></g><g clip-path="url(#0b39d571aa)"><path fill="#3a322b" d="M 66.058594 68.113281 C 59.570312 68.113281 55.941406 69.792969 53.921875 73.722656 C 52.902344 75.707031 52.59375 78.609375 52.199219 82.285156 C 51.808594 85.898438 51.324219 90.398438 49.996094 94.605469 C 48.015625 100.882812 41.921875 104.9375 34.480469 104.9375 C 33.785156 104.9375 33.113281 104.910156 32.453125 104.871094 L 50.15625 82.738281 C 50.25 82.617188 50.285156 82.457031 50.242188 82.3125 C 50.199219 82.164062 50.089844 82.042969 49.945312 81.992188 L 37.109375 77.375 L 40.277344 56.878906 C 40.3125 56.648438 40.175781 56.425781 39.953125 56.351562 C 39.734375 56.28125 39.492188 56.378906 39.382812 56.585938 L 25.199219 84.03125 C 25.132812 84.15625 25.128906 84.308594 25.183594 84.4375 C 25.242188 84.570312 25.355469 84.667969 25.492188 84.707031 L 35.035156 87.421875 L 28.984375 104.457031 C 21.765625 103.09375 17.832031 98.699219 17.289062 91.390625 C 17.859375 91.289062 18.296875 90.792969 18.296875 90.191406 L 18.296875 88.632812 C 20.894531 88.46875 22.964844 86.308594 22.964844 83.667969 L 22.964844 72.210938 C 22.964844 71.949219 22.75 71.734375 22.488281 71.734375 L 20.15625 71.734375 L 20.15625 65.320312 C 20.15625 64.585938 19.5625 63.988281 18.828125 63.988281 L 18.765625 63.988281 C 18.03125 63.988281 17.433594 64.585938 17.433594 65.320312 L 17.433594 71.734375 L 12.09375 71.734375 L 12.09375 65.320312 C 12.09375 64.585938 11.496094 63.988281 10.761719 63.988281 L 10.699219 63.988281 C 9.964844 63.988281 9.371094 64.585938 9.371094 65.320312 L 9.371094 71.734375 L 7.039062 71.734375 C 6.777344 71.734375 6.566406 71.949219 6.566406 72.210938 L 6.566406 83.667969 C 6.566406 86.308594 8.632812 88.46875 11.234375 88.632812 L 11.234375 90.191406 C 11.234375 90.839844 11.738281 91.363281 12.375 91.40625 C 12.816406 98.253906 15.828125 106.652344 27.328125 109.128906 L 26.898438 110.335938 C 26.820312 110.554688 26.910156 110.796875 27.113281 110.910156 C 27.1875 110.953125 27.265625 110.972656 27.34375 110.972656 C 27.484375 110.972656 27.625 110.910156 27.71875 110.792969 L 28.824219 109.40625 C 30.574219 109.6875 32.472656 109.832031 34.480469 109.832031 C 44.105469 109.832031 52.027344 104.433594 54.664062 96.078125 C 56.140625 91.40625 56.65625 86.632812 57.066406 82.800781 C 57.378906 79.886719 57.675781 77.132812 58.277344 75.960938 C 59.214844 74.140625 60.839844 73.007812 66.058594 73.007812 C 66.320312 73.007812 66.535156 72.796875 66.535156 72.535156 L 66.535156 68.589844 C 66.535156 68.328125 66.320312 68.113281 66.058594 68.113281 Z M 36.078125 86.882812 C 36.015625 86.765625 35.910156 86.679688 35.785156 86.644531 L 26.3125 83.949219 L 38.890625 59.613281 L 36.109375 77.617188 C 36.074219 77.839844 36.203125 78.058594 36.417969 78.136719 L 48.996094 82.664062 L 28.742188 107.988281 L 36.101562 87.261719 C 36.148438 87.136719 36.136719 87 36.078125 86.882812 Z M 18.386719 65.320312 C 18.386719 65.113281 18.554688 64.941406 18.765625 64.941406 L 18.828125 64.941406 C 19.035156 64.941406 19.207031 65.113281 19.207031 65.320312 L 19.207031 71.734375 L 18.386719 71.734375 Z M 10.320312 65.320312 C 10.320312 65.113281 10.492188 64.941406 10.699219 64.941406 L 10.761719 64.941406 C 10.972656 64.941406 11.140625 65.113281 11.140625 65.320312 L 11.140625 71.734375 L 10.320312 71.734375 Z M 9.847656 72.6875 L 22.011719 72.6875 L 22.011719 74.71875 L 7.515625 74.71875 L 7.515625 72.6875 Z M 7.515625 83.667969 L 7.515625 75.667969 L 22.011719 75.667969 L 22.011719 83.667969 C 22.011719 85.886719 20.203125 87.695312 17.980469 87.695312 L 11.546875 87.695312 C 9.324219 87.695312 7.515625 85.886719 7.515625 83.667969 Z M 12.183594 90.191406 L 12.183594 88.648438 L 17.34375 88.648438 L 17.34375 90.191406 C 17.34375 90.339844 17.222656 90.460938 17.074219 90.460938 L 12.453125 90.460938 C 12.304688 90.460938 12.183594 90.339844 12.183594 90.191406 Z M 13.332031 91.414062 L 16.335938 91.414062 C 16.894531 99.1875 21.039062 103.875 28.664062 105.363281 L 27.648438 108.222656 C 16.667969 105.910156 13.765625 97.9375 13.332031 91.414062 Z M 65.582031 72.0625 C 60.253906 72.132812 58.5 73.445312 57.429688 75.527344 C 56.75 76.855469 56.445312 79.691406 56.121094 82.699219 C 55.714844 86.492188 55.207031 91.207031 53.757812 95.792969 C 51.246094 103.742188 43.679688 108.882812 34.480469 108.882812 C 32.726562 108.882812 31.066406 108.765625 29.515625 108.546875 L 31.726562 105.78125 C 32.609375 105.847656 33.53125 105.890625 34.480469 105.890625 C 42.347656 105.890625 48.792969 101.570312 50.90625 94.890625 C 52.261719 90.59375 52.75 86.042969 53.144531 82.386719 C 53.527344 78.808594 53.832031 75.984375 54.769531 74.160156 C 56.554688 70.683594 59.800781 69.148438 65.582031 69.070312 Z M 65.582031 72.0625 " fill-opacity="1" fill-rule="nonzero"/></g><path fill="#3a322b" d="M 53.632812 71.945312 C 53.722656 72.082031 53.875 72.15625 54.027344 72.15625 C 54.117188 72.15625 54.210938 72.128906 54.292969 72.074219 C 54.511719 71.929688 54.570312 71.632812 54.421875 71.414062 C 54.015625 70.808594 53.574219 70.210938 53.109375 69.648438 C 52.945312 69.445312 52.644531 69.414062 52.441406 69.582031 C 52.238281 69.746094 52.207031 70.046875 52.375 70.25 C 52.820312 70.792969 53.242188 71.363281 53.632812 71.945312 Z M 53.632812 71.945312 " fill-opacity="1" fill-rule="nonzero"/><path fill="#3a322b" d="M 51.378906 69.117188 C 51.472656 69.214844 51.597656 69.265625 51.726562 69.265625 C 51.84375 69.265625 51.957031 69.222656 52.050781 69.136719 C 52.242188 68.957031 52.25 68.65625 52.070312 68.464844 C 51.574219 67.933594 51.042969 67.421875 50.5 66.945312 C 50.300781 66.769531 50 66.792969 49.828125 66.988281 C 49.652344 67.1875 49.671875 67.488281 49.871094 67.660156 C 50.394531 68.117188 50.902344 68.609375 51.378906 69.117188 Z M 51.378906 69.117188 " fill-opacity="1" fill-rule="nonzero"/><path fill="#3a322b" d="M 47.21875 65.667969 C 47.691406 65.96875 48.160156 66.296875 48.613281 66.636719 C 48.695312 66.699219 48.796875 66.730469 48.898438 66.730469 C 49.042969 66.730469 49.183594 66.667969 49.277344 66.542969 C 49.4375 66.332031 49.394531 66.035156 49.183594 65.875 C 48.714844 65.519531 48.226562 65.183594 47.734375 64.867188 C 47.511719 64.726562 47.21875 64.789062 47.074219 65.011719 C 46.933594 65.230469 47 65.527344 47.21875 65.667969 Z M 47.21875 65.667969 " fill-opacity="1" fill-rule="nonzero"/><path fill="#3a322b" d="M 44.003906 63.972656 C 44.59375 64.222656 45.183594 64.503906 45.746094 64.804688 C 45.816406 64.84375 45.894531 64.863281 45.972656 64.863281 C 46.140625 64.863281 46.304688 64.769531 46.390625 64.609375 C 46.515625 64.378906 46.425781 64.089844 46.195312 63.96875 C 45.605469 63.652344 44.992188 63.359375 44.375 63.097656 C 44.136719 62.996094 43.855469 63.105469 43.753906 63.347656 C 43.648438 63.589844 43.761719 63.871094 44.003906 63.972656 Z M 44.003906 63.972656 " fill-opacity="1" fill-rule="nonzero"/><path fill="#3a322b" d="M 40.785156 62.894531 C 41.304688 63.027344 41.828125 63.175781 42.339844 63.34375 C 42.386719 63.363281 42.4375 63.371094 42.488281 63.371094 C 42.6875 63.371094 42.875 63.242188 42.9375 63.042969 C 43.023438 62.792969 42.886719 62.523438 42.636719 62.441406 C 42.101562 62.265625 41.558594 62.109375 41.015625 61.972656 C 40.761719 61.90625 40.5 62.0625 40.4375 62.320312 C 40.375 62.574219 40.53125 62.832031 40.785156 62.894531 Z M 40.785156 62.894531 " fill-opacity="1" fill-rule="nonzero"/><path fill="#3a322b" d="M 34.101562 62.289062 C 34.109375 62.289062 34.121094 62.289062 34.128906 62.289062 C 34.578125 62.261719 35.03125 62.246094 35.484375 62.246094 C 35.746094 62.246094 35.960938 62.035156 35.960938 61.773438 C 35.960938 61.507812 35.746094 61.296875 35.484375 61.296875 C 35.015625 61.296875 34.539062 61.308594 34.070312 61.339844 C 33.808594 61.355469 33.609375 61.582031 33.625 61.84375 C 33.640625 62.09375 33.851562 62.289062 34.101562 62.289062 Z M 34.101562 62.289062 " fill-opacity="1" fill-rule="nonzero"/><path fill="#3a322b" d="M 30.800781 62.738281 C 30.832031 62.738281 30.867188 62.738281 30.898438 62.730469 C 31.417969 62.617188 31.949219 62.527344 32.476562 62.453125 C 32.734375 62.417969 32.917969 62.175781 32.882812 61.917969 C 32.847656 61.65625 32.613281 61.472656 32.34375 61.511719 C 31.796875 61.585938 31.242188 61.683594 30.703125 61.796875 C 30.445312 61.851562 30.28125 62.105469 30.335938 62.363281 C 30.382812 62.585938 30.582031 62.738281 30.800781 62.738281 Z M 30.800781 62.738281 " fill-opacity="1" fill-rule="nonzero"/><path fill="#3a322b" d="M 27.242188 63.820312 C 27.300781 63.820312 27.359375 63.808594 27.417969 63.785156 C 28.003906 63.550781 28.605469 63.34375 29.210938 63.164062 C 29.460938 63.085938 29.605469 62.820312 29.53125 62.570312 C 29.453125 62.320312 29.191406 62.175781 28.9375 62.25 C 28.308594 62.4375 27.679688 62.65625 27.066406 62.902344 C 26.824219 63 26.703125 63.273438 26.800781 63.519531 C 26.875 63.707031 27.054688 63.820312 27.242188 63.820312 Z M 27.242188 63.820312 " fill-opacity="1" fill-rule="nonzero"/><path fill="#3a322b" d="M 24.363281 65.214844 C 24.441406 65.214844 24.523438 65.195312 24.597656 65.152344 C 25.058594 64.886719 25.53125 64.636719 26.007812 64.40625 C 26.246094 64.292969 26.34375 64.007812 26.230469 63.769531 C 26.113281 63.535156 25.832031 63.433594 25.59375 63.550781 C 25.097656 63.789062 24.601562 64.050781 24.125 64.328125 C 23.894531 64.457031 23.816406 64.75 23.949219 64.976562 C 24.035156 65.128906 24.195312 65.214844 24.363281 65.214844 Z M 24.363281 65.214844 " fill-opacity="1" fill-rule="nonzero"/><path fill="#3a322b" d="M 21.203125 67.417969 C 21.308594 67.417969 21.417969 67.382812 21.507812 67.308594 C 21.996094 66.902344 22.507812 66.507812 23.035156 66.144531 C 23.25 65.996094 23.304688 65.699219 23.152344 65.480469 C 23.003906 65.265625 22.707031 65.210938 22.488281 65.363281 C 21.945312 65.742188 21.40625 66.152344 20.898438 66.578125 C 20.695312 66.746094 20.667969 67.046875 20.835938 67.25 C 20.929688 67.363281 21.066406 67.417969 21.203125 67.417969 Z M 21.203125 67.417969 " fill-opacity="1" fill-rule="nonzero"/></g></g></svg>